<svg xmlns="http://www.w3.org/2000/svg" width="1350" viewBox="0 0 1350 697.5" height="697.5" version="1.0"><defs><clipPath id="a"><path d="M 0.484375 0 L 562 0 L 562 587 L 0.484375 587 Z M 0.484375 0"/></clipPath><clipPath id="b"><path d="M 778 167 L 1170 167 L 1170 697 L 778 697 Z M 778 167"/></clipPath><clipPath id="c"><path d="M 1044 113 L 1349.515625 113 L 1349.515625 463 L 1044 463 Z M 1044 113"/></clipPath></defs><g clip-path="url(#a)"><g fill="#6C5EE6"><g><g><path d="M 84.640625 -108.34375 L 81.203125 -98.296875 C 82.015625 -91.492188 92.363281 -86.117188 112.25 -82.171875 C 132.132812 -78.222656 153.523438 -77.609375 176.421875 -80.328125 C 199.328125 -83.054688 224.113281 -89.460938 250.78125 -99.546875 C 277.457031 -109.640625 300.363281 -120.832031 319.5 -133.125 C 338.644531 -145.414062 354.207031 -157.75 366.1875 -170.125 C 378.175781 -182.507812 383.695312 -192.695312 382.75 -200.6875 C 381.539062 -210.789062 368.675781 -218.785156 344.15625 -224.671875 C 319.632812 -230.566406 284.375 -236.078125 238.375 -241.203125 C 192.382812 -246.335938 158.039062 -255.648438 135.34375 -269.140625 C 112.65625 -282.628906 99.945312 -300.828125 97.21875 -323.734375 C 94.488281 -346.640625 100.097656 -369.519531 114.046875 -392.375 C 128.003906 -415.238281 147.226562 -436.347656 171.71875 -455.703125 C 196.21875 -475.066406 223.335938 -492.957031 253.078125 -509.375 C 314.566406 -543.144531 372.910156 -563.316406 428.109375 -569.890625 C 449.253906 -572.410156 468.15625 -572.753906 484.8125 -570.921875 C 516.6875 -567.335938 533.335938 -559.554688 534.765625 -547.578125 C 536.191406 -535.597656 536.109375 -527.304688 534.515625 -522.703125 C 532.921875 -518.109375 531.554688 -515.03125 530.421875 -513.46875 C 529.296875 -511.90625 527.816406 -510.296875 525.984375 -508.640625 C 524.160156 -506.992188 522.820312 -505.765625 521.96875 -504.953125 C 512.675781 -495.023438 485.015625 -486.25 438.984375 -478.625 C 423.097656 -476.007812 414.503906 -474.148438 413.203125 -473.046875 C 411.898438 -471.941406 410.71875 -471.328125 409.65625 -471.203125 C 408.601562 -471.078125 407.257812 -471.867188 405.625 -473.578125 C 403.988281 -475.296875 402.921875 -478.269531 402.421875 -482.5 C 401.921875 -486.726562 405.582031 -495.023438 413.40625 -507.390625 C 384.9375 -502.328125 355.125 -492.101562 323.96875 -476.71875 C 292.8125 -461.332031 266.109375 -444.988281 243.859375 -427.6875 C 221.617188 -410.394531 203.34375 -393.804688 189.03125 -377.921875 C 174.726562 -362.035156 167.921875 -351.210938 168.609375 -345.453125 C 169.296875 -339.691406 171.628906 -335.144531 175.609375 -331.8125 C 186.734375 -322.414062 215.410156 -314.632812 261.640625 -308.46875 C 309.578125 -302.03125 341.734375 -296.09375 358.109375 -290.65625 C 374.484375 -285.226562 388.164062 -279.832031 399.15625 -274.46875 C 410.15625 -269.113281 419.117188 -263.398438 426.046875 -257.328125 C 442.328125 -242.578125 451.472656 -226.742188 453.484375 -209.828125 C 455.503906 -192.921875 452.875 -176.53125 445.59375 -160.65625 C 438.320312 -144.78125 426.40625 -128.828125 409.84375 -112.796875 C 393.289062 -96.765625 373.328125 -81.878906 349.953125 -68.140625 C 298.804688 -37.503906 235.882812 -17.738281 161.1875 -8.84375 C 106.695312 -2.34375 70.207031 -12.644531 51.71875 -39.75 C 46.851562 -46.5625 43.953125 -53.898438 43.015625 -61.765625 C 42.078125 -69.628906 43.050781 -76.953125 45.9375 -83.734375 C 48.832031 -90.515625 52.664062 -95.851562 57.4375 -99.75 C 66.78125 -107.300781 73.566406 -111.328125 77.796875 -111.828125 C 82.023438 -112.328125 84.304688 -111.164062 84.640625 -108.34375 Z M 84.640625 -108.34375" transform="translate(-31.229 582.077)"/></g></g></g></g><g fill="#6C5EE6"><g><g><path d="M 210.203125 -485.3125 L 225.0625 -483.515625 C 227.164062 -483.765625 229.164062 -482.929688 231.0625 -481.015625 C 232.96875 -479.097656 234.03125 -477.195312 234.25 -475.3125 C 234.476562 -473.4375 232.613281 -468.09375 228.65625 -459.28125 C 224.707031 -450.46875 220.007812 -440.4375 214.5625 -429.1875 C 209.113281 -417.945312 206.210938 -411.828125 205.859375 -410.828125 C 224.015625 -414.410156 236.90625 -416.65625 244.53125 -417.5625 C 252.164062 -418.476562 257.453125 -418.578125 260.390625 -417.859375 C 263.335938 -417.140625 266.914062 -414.585938 271.125 -410.203125 C 275.34375 -405.828125 279.125 -402.585938 282.46875 -400.484375 C 285.820312 -398.378906 287.789062 -394.859375 288.375 -389.921875 C 288.96875 -384.984375 286.46875 -380.453125 280.875 -376.328125 C 275.289062 -372.210938 269.140625 -369.398438 262.421875 -367.890625 C 208.566406 -355.992188 178.835938 -349.59375 173.234375 -348.6875 C 157.671875 -317.289062 136.472656 -268.722656 109.640625 -202.984375 C 82.804688 -137.253906 69.257812 -96.515625 69 -80.765625 C 68.882812 -73.597656 69.09375 -67.78125 69.625 -63.3125 C 70.71875 -54.164062 76.082031 -50.164062 85.71875 -51.3125 C 95.351562 -52.46875 105.601562 -57.441406 116.46875 -66.234375 C 127.332031 -75.023438 137.179688 -84.359375 146.015625 -94.234375 C 169.523438 -120.859375 182.222656 -134.285156 184.109375 -134.515625 C 190.203125 -135.234375 194.503906 -125.019531 197.015625 -103.875 C 198.390625 -92.363281 194.34375 -81.394531 184.875 -70.96875 C 163.59375 -47.71875 145.460938 -29.957031 130.484375 -17.6875 C 115.503906 -5.414062 99.910156 1.679688 83.703125 3.609375 C 80.171875 4.023438 76.835938 4.0625 73.703125 3.71875 C 54.492188 2.4375 39.875 -2.785156 29.84375 -11.953125 C 19.820312 -21.117188 13.832031 -34.398438 11.875 -51.796875 C 9.914062 -69.203125 12.566406 -90.90625 19.828125 -116.90625 C 27.097656 -142.90625 36.820312 -170.800781 49 -200.59375 C 68.945312 -249.1875 89.222656 -294.960938 109.828125 -337.921875 L 96.640625 -334.5625 C 69.765625 -328.269531 54.09375 -324.859375 49.625 -324.328125 L 46.453125 -323.9375 C 39.640625 -323.125 32.898438 -323.6875 26.234375 -325.625 C 19.566406 -327.570312 15.992188 -330.546875 15.515625 -334.546875 C 15.046875 -338.546875 16.289062 -342.625 19.25 -346.78125 C 22.21875 -350.9375 23.925781 -354.117188 24.375 -356.328125 C 25.40625 -361.679688 30.882812 -368.171875 40.8125 -375.796875 C 50.738281 -383.421875 58.382812 -387.726562 63.75 -388.71875 C 69.113281 -389.707031 74.304688 -390.617188 79.328125 -391.453125 C 84.347656 -392.296875 89.957031 -393.207031 96.15625 -394.1875 C 102.351562 -395.164062 107.082031 -395.96875 110.34375 -396.59375 L 141.875 -401.78125 C 158.09375 -433.726562 169.394531 -454.367188 175.78125 -463.703125 C 182.175781 -473.046875 185.910156 -478.195312 186.984375 -479.15625 C 188.066406 -480.113281 190.367188 -480.804688 193.890625 -481.234375 Z M 210.203125 -485.3125" transform="translate(422.283 528.044)"/></g></g></g><g fill="#6C5EE6"><g><g><path d="M 258.78125 -302.421875 C 276.632812 -304.554688 286.289062 -299.515625 287.75 -287.296875 C 288.53125 -280.710938 287.578125 -275.710938 284.890625 -272.296875 C 282.203125 -268.890625 276.894531 -257.953125 268.96875 -239.484375 C 261.039062 -221.023438 252.628906 -197.628906 243.734375 -169.296875 C 234.835938 -140.972656 229.765625 -117.082031 228.515625 -97.625 C 228.085938 -95.1875 228.125 -91.851562 228.625 -87.625 C 230.164062 -74.707031 234.460938 -68.671875 241.515625 -69.515625 C 248.566406 -70.359375 256.503906 -74.695312 265.328125 -82.53125 C 274.160156 -90.375 281.878906 -98.5625 288.484375 -107.09375 C 295.097656 -115.625 301.507812 -124.304688 307.71875 -133.140625 C 313.925781 -141.984375 317.664062 -147.078125 318.9375 -148.421875 C 320.21875 -149.765625 322.265625 -150.601562 325.078125 -150.9375 C 329.546875 -151.46875 332.648438 -148.382812 334.390625 -141.6875 C 336.140625 -134.988281 337.445312 -128 338.3125 -120.71875 C 339.1875 -113.4375 339.085938 -108.300781 338.015625 -105.3125 C 332.796875 -91.113281 319.734375 -73.238281 298.828125 -51.6875 C 277.929688 -30.132812 258.03125 -18.234375 239.125 -15.984375 C 220.21875 -13.734375 205.613281 -17.832031 195.3125 -28.28125 C 185.019531 -38.726562 179.039062 -50.9375 177.375 -64.90625 C 175.707031 -78.882812 176.59375 -91.4375 180.03125 -102.5625 C 163.550781 -74.875 143.738281 -50.71875 120.59375 -30.09375 C 97.445312 -9.46875 77.882812 1.796875 61.90625 3.703125 C 45.925781 5.609375 32.3125 2.347656 21.0625 -6.078125 C 6.71875 -16.515625 -1.71875 -32.363281 -4.25 -53.625 C -6.78125 -74.882812 -4.570312 -96.828125 2.375 -119.453125 C 9.332031 -142.085938 19.503906 -163.191406 32.890625 -182.765625 C 46.285156 -202.347656 61.394531 -220.53125 78.21875 -237.3125 C 113.582031 -272.5 147.707031 -292.050781 180.59375 -295.96875 C 193.269531 -297.476562 203.851562 -296.59375 212.34375 -293.3125 C 220.832031 -290.039062 226.515625 -285.359375 229.390625 -279.265625 C 234.015625 -288.390625 238.128906 -294.300781 241.734375 -297 C 245.347656 -299.695312 251.03125 -301.503906 258.78125 -302.421875 Z M 216.578125 -257.71875 C 176.410156 -252.9375 137.492188 -225.671875 99.828125 -175.921875 C 86.453125 -158.128906 74.695312 -137.3125 64.5625 -113.46875 C 54.425781 -89.632812 49.847656 -73.601562 50.828125 -65.375 C 51.804688 -57.15625 54.644531 -53.320312 59.34375 -53.875 C 65.914062 -54.664062 82.6875 -69.828125 109.65625 -99.359375 C 136.625 -128.898438 154.320312 -150.363281 162.75 -163.75 C 171.925781 -178.664062 189.867188 -209.988281 216.578125 -257.71875 Z M 216.578125 -257.71875" transform="translate(548.455 513.011)"/></g></g></g><g clip-path="url(#b)"><g fill="#6C5EE6"><g><g><path d="M 142.546875 101.65625 C 141.503906 102.96875 138.628906 109.328125 133.921875 120.734375 C 129.210938 132.140625 124.097656 143.707031 118.578125 155.4375 C 113.066406 167.175781 105.90625 178.570312 97.09375 189.625 C 88.28125 200.675781 80.578125 207.007812 73.984375 208.625 C 67.390625 210.25 63.15625 211.175781 61.28125 211.40625 C 39.664062 213.976562 27.554688 204.34375 24.953125 182.5 C 21.910156 156.894531 31.617188 125.363281 54.078125 87.90625 C 62.628906 73.78125 73.648438 58.347656 87.140625 41.609375 C 100.640625 24.867188 107.972656 15.414062 109.140625 13.25 C 110.316406 11.09375 124.007812 -23.945312 150.21875 -91.875 C 130.601562 -64.519531 112.082031 -42 94.65625 -24.3125 C 77.226562 -6.632812 59.703125 4.203125 42.078125 8.203125 L 39.609375 8.5 C 30.441406 9.59375 21.035156 7.675781 11.390625 2.75 C 1.753906 -2.175781 -3.957031 -12.15625 -5.75 -27.1875 C -8.40625 -49.5 -4.988281 -71.820312 4.5 -94.15625 C 7.863281 -101.945312 13.734375 -115.15625 22.109375 -133.78125 C 30.492188 -152.414062 38.1875 -170.367188 45.1875 -187.640625 C 52.101562 -201.566406 59.003906 -217.632812 65.890625 -235.84375 C 72.773438 -254.050781 78.125 -267.132812 81.9375 -275.09375 C 85.75 -283.050781 89.769531 -287.28125 94 -287.78125 C 98.226562 -288.289062 104.003906 -286.300781 111.328125 -281.8125 C 118.648438 -277.332031 122.742188 -271.445312 123.609375 -264.15625 C 124.484375 -256.875 112.863281 -223.445312 88.75 -163.875 C 64.644531 -104.300781 53.054688 -70.640625 53.984375 -62.890625 C 54.203125 -61.015625 55.25 -60.191406 57.125 -60.421875 C 63.46875 -61.171875 76.429688 -71.820312 96.015625 -92.375 C 115.597656 -112.9375 136.863281 -138.878906 159.8125 -170.203125 C 185.46875 -204.941406 205.09375 -236.226562 218.6875 -264.0625 C 220.414062 -267.59375 221.820312 -270.316406 222.90625 -272.234375 C 223.988281 -274.148438 225.351562 -276.695312 227 -279.875 C 228.644531 -283.050781 230.015625 -285.535156 231.109375 -287.328125 C 232.203125 -289.128906 233.492188 -291.25 234.984375 -293.6875 C 236.484375 -296.132812 237.867188 -298.023438 239.140625 -299.359375 C 240.410156 -300.703125 241.800781 -302.0625 243.3125 -303.4375 C 245.601562 -306.09375 248.335938 -307.609375 251.515625 -307.984375 C 254.691406 -308.367188 259.59375 -308.238281 266.21875 -307.59375 C 272.84375 -306.957031 276.894531 -305.890625 278.375 -304.390625 C 279.863281 -302.898438 281.398438 -301.539062 282.984375 -300.3125 C 285.640625 -298 287.097656 -295.726562 287.359375 -293.5 C 287.628906 -291.269531 287.039062 -288.222656 285.59375 -284.359375 C 284.144531 -280.492188 275.441406 -260.570312 259.484375 -224.59375 C 212.566406 -118.46875 180.785156 -41.304688 164.140625 6.890625 C 196.265625 -27.421875 241.234375 -77.925781 299.046875 -144.625 C 301.367188 -147.039062 303.816406 -148.40625 306.390625 -148.71875 C 313.671875 -149.582031 318.644531 -138.859375 321.3125 -116.546875 C 322.09375 -109.960938 321.4375 -105.472656 319.34375 -103.078125 C 255.550781 -40.691406 196.617188 27.550781 142.546875 101.65625 Z M 142.546875 101.65625" transform="translate(813.456 481.438)"/></g></g></g></g><g clip-path="url(#c)"><g fill="#6C5EE6"><g><g><path d="M 52.21875 -77.6875 L 52.53125 -72.015625 C 53.226562 -66.140625 56.0625 -61.347656 61.03125 -57.640625 C 66 -53.941406 70.363281 -52.320312 74.125 -52.78125 C 102.3125 -56.132812 126.765625 -63.335938 147.484375 -74.390625 C 168.203125 -85.441406 178.054688 -95.191406 177.046875 -103.640625 C 176.578125 -107.628906 172.234375 -110.625 164.015625 -112.625 C 155.796875 -114.625 142.085938 -116.679688 122.890625 -118.796875 C 103.691406 -120.921875 89.71875 -122.710938 80.96875 -124.171875 C 72.226562 -125.628906 65.265625 -127.117188 60.078125 -128.640625 C 54.890625 -130.171875 49.484375 -132.507812 43.859375 -135.65625 C 31.910156 -142.09375 25.019531 -153.003906 23.1875 -168.390625 C 21.351562 -183.773438 25.226562 -199.722656 34.8125 -216.234375 C 44.394531 -232.742188 57.117188 -247.421875 72.984375 -260.265625 C 88.847656 -273.117188 106.148438 -284.835938 124.890625 -295.421875 C 161.960938 -316.273438 193.769531 -328.28125 220.3125 -331.4375 C 246.382812 -334.539062 263.144531 -330.816406 270.59375 -320.265625 C 272.957031 -316.503906 274.4375 -312.15625 275.03125 -307.21875 L 275.3125 -304.75 C 276.800781 -292.300781 275.320312 -282.234375 270.875 -274.546875 C 266.425781 -266.867188 258.835938 -259.53125 248.109375 -252.53125 C 237.390625 -245.539062 228.679688 -241.644531 221.984375 -240.84375 C 215.285156 -240.050781 211 -240.019531 209.125 -240.75 C 207.25 -241.488281 205.632812 -242.550781 204.28125 -243.9375 C 202.925781 -245.320312 201.328125 -246.257812 199.484375 -246.75 C 197.648438 -247.25 196.5625 -248.910156 196.21875 -251.734375 C 195.882812 -254.554688 196.71875 -257.570312 198.71875 -260.78125 C 200.71875 -263.988281 201.988281 -267.296875 202.53125 -270.703125 C 187.113281 -268.148438 171.332031 -262.632812 155.1875 -254.15625 C 139.050781 -245.6875 125.40625 -236.738281 114.25 -227.3125 C 103.101562 -217.882812 93.96875 -209.054688 86.84375 -200.828125 C 79.726562 -192.597656 76.375 -186.773438 76.78125 -183.359375 C 77.1875 -179.953125 82.921875 -177.835938 93.984375 -177.015625 C 143.742188 -173.171875 176.679688 -168.632812 192.796875 -163.40625 C 208.910156 -158.175781 220.4375 -151.445312 227.375 -143.21875 C 234.3125 -135 238.210938 -127.25 239.078125 -119.96875 C 240.867188 -104.925781 236.566406 -90 226.171875 -75.1875 C 215.785156 -60.375 202.289062 -47.6875 185.6875 -37.125 C 150.082031 -14.070312 118.242188 -0.875 90.171875 2.46875 C 62.097656 5.8125 42.203125 3.835938 30.484375 -3.453125 C 18.773438 -10.753906 12.222656 -20.273438 10.828125 -32.015625 C 9.429688 -43.765625 11.128906 -54.988281 15.921875 -65.6875 C 20.722656 -76.382812 27.820312 -82.289062 37.21875 -83.40625 C 46.625 -84.53125 51.625 -82.625 52.21875 -77.6875 Z M 52.21875 -77.6875" transform="translate(1066.124 451.334)"/></g></g></g></g></svg>