<?xml version="1.0" standalone="no"?>
<!DOCTYPE svg PUBLIC "-//W3C//DTD SVG 20010904//EN"
 "http://www.w3.org/TR/2001/REC-SVG-20010904/DTD/svg10.dtd">
<svg version="1.0" xmlns="http://www.w3.org/2000/svg"
 width="1500.000000pt" height="1500.000000pt" viewBox="0 0 1500.000000 1500.000000"
 preserveAspectRatio="xMidYMid meet">
<metadata>
Created by potrace 1.14, written by Peter Selinger 2001-2017
</metadata>
<g transform="translate(0.000000,1500.000000) scale(0.100000,-0.100000)"
fill="#000000" stroke="none">
<path d="M7035 14220 c-257 -18 -638 -70 -910 -126 -430 -88 -908 -240 -1320
-419 -168 -74 -573 -281 -730 -375 -1189 -707 -2151 -1778 -2713 -3020 -301
-665 -488 -1372 -568 -2141 -35 -343 -30 -976 12 -1364 213 -1995 1311 -3782
3009 -4901 912 -600 1942 -958 3080 -1071 255 -25 972 -25 1225 0 1051 106
1957 401 2840 926 952 565 1802 1422 2363 2383 464 793 758 1665 866 2568 40
329 46 441 46 820 -1 379 -8 520 -46 830 -156 1300 -701 2539 -1555 3535 -166
193 -491 524 -666 677 -715 625 -1462 1057 -2323 1343 -489 162 -986 267
-1525 320 -193 20 -879 29 -1085 15z m-1122 -4829 c126 -33 152 -60 166 -179
12 -100 -4 -151 -70 -219 -86 -88 -224 -147 -559 -239 -74 -20 -147 -44 -161
-52 -35 -20 -57 -10 -75 33 -16 39 -12 64 22 143 l24 53 -33 -6 c-46 -10 -249
-91 -332 -133 -338 -169 -686 -429 -918 -687 -174 -192 -277 -344 -277 -407 0
-130 174 -184 675 -208 264 -13 528 -37 620 -56 109 -23 303 -83 382 -120 174
-79 309 -229 343 -380 16 -69 13 -209 -5 -279 -79 -308 -429 -668 -900 -928
-295 -163 -736 -309 -1086 -361 -277 -41 -480 3 -610 133 -81 82 -104 136
-104 241 0 76 3 91 30 139 32 58 128 146 170 157 45 11 56 0 50 -53 -3 -27 -2
-53 2 -59 16 -23 75 -44 165 -60 108 -19 313 -14 438 11 270 54 604 198 872
377 173 115 378 305 447 415 154 244 -1 312 -779 343 -395 15 -454 19 -577 40
-402 69 -603 244 -620 540 -12 188 64 392 230 616 114 154 405 420 652 594
253 179 614 374 855 462 138 51 368 112 500 133 136 21 371 19 463 -4z m1182
-103 c37 -29 33 -50 -53 -287 -39 -107 -70 -196 -69 -197 1 -1 58 13 127 32
69 19 152 37 185 40 54 5 64 3 95 -20 19 -14 58 -42 87 -61 60 -40 73 -60 73
-108 0 -43 -53 -100 -119 -129 -25 -11 -179 -62 -341 -112 l-295 -93 -28 -69
c-110 -270 -406 -1228 -483 -1559 -44 -192 -42 -387 4 -428 51 -44 140 -22
247 64 l76 60 -8 62 c-31 241 23 511 154 772 189 377 504 723 778 855 117 56
205 80 299 80 92 0 148 -16 193 -55 l39 -33 28 54 c16 30 40 64 54 74 33 27
115 50 174 50 81 0 123 -33 142 -112 6 -28 4 -35 -58 -196 -75 -193 -173 -579
-211 -832 -9 -58 -17 -161 -18 -230 -2 -110 1 -131 20 -173 33 -71 75 -77 160
-23 32 21 33 22 33 98 0 118 19 189 185 683 85 253 177 537 204 631 66 225 87
279 118 304 34 26 67 25 128 -5 88 -42 115 -77 115 -147 0 -62 -65 -317 -180
-703 -51 -170 -92 -318 -92 -330 -1 -11 12 -65 26 -120 19 -68 25 -113 21
-140 l-5 -40 45 50 c66 73 230 292 322 430 223 336 379 622 504 921 129 312
156 344 289 344 96 0 170 -47 170 -107 0 -14 -68 -226 -151 -472 -260 -772
-512 -1591 -495 -1608 4 -4 497 656 671 897 138 192 171 230 200 230 44 0 84
-69 108 -190 17 -81 13 -99 -31 -150 -39 -46 -39 -47 34 -80 41 -19 41 -19
130 4 285 77 528 214 584 332 20 41 21 46 6 69 -9 13 -33 29 -53 35 -21 6
-186 17 -368 25 -229 10 -348 19 -390 30 -146 38 -221 101 -255 213 -95 306
172 693 711 1032 312 196 610 287 784 239 89 -25 135 -111 135 -252 0 -114
-76 -223 -220 -316 -100 -65 -174 -77 -245 -41 -51 26 -59 50 -38 111 10 26
14 51 10 55 -10 10 -120 -32 -217 -83 -169 -89 -315 -209 -451 -372 -114 -135
-146 -208 -101 -226 9 -4 143 -9 297 -11 386 -5 514 -23 645 -89 56 -28 134
-107 160 -160 62 -130 17 -306 -124 -481 -36 -44 -95 -106 -133 -136 -329
-268 -633 -397 -914 -386 -120 5 -173 24 -240 88 l-39 37 -33 -41 c-113 -141
-362 -496 -514 -731 -203 -315 -208 -326 -276 -530 -72 -213 -123 -327 -196
-437 -61 -90 -102 -124 -184 -149 -150 -46 -245 -6 -294 123 -26 69 -23 259 6
373 53 206 147 398 342 698 l110 168 59 202 c113 388 148 512 146 514 -1 2
-38 -53 -81 -122 -188 -296 -348 -476 -496 -555 -80 -43 -88 -45 -164 -44 -47
0 -94 7 -115 15 -34 15 -36 15 -81 -18 -87 -62 -155 -87 -254 -91 -107 -5
-159 7 -217 51 -115 88 -166 195 -175 370 l-6 107 -46 -82 c-59 -106 -134
-215 -209 -309 -71 -88 -229 -242 -292 -286 -164 -112 -312 -128 -455 -49
l-62 34 -54 -55 c-144 -147 -309 -210 -486 -185 -321 45 -427 325 -322 847 62
305 189 727 385 1277 41 114 74 208 74 210 0 2 -87 -25 -192 -59 -230 -76
-316 -88 -390 -56 -73 33 -71 66 15 241 26 55 137 158 202 188 28 12 140 46
250 74 110 28 223 58 250 66 l50 14 59 143 c68 165 134 305 175 369 26 41 37
48 103 71 96 33 184 36 223 5z"/>
<path d="M7905 7916 c-208 -66 -411 -238 -598 -504 -94 -134 -163 -264 -222
-415 l-45 -119 26 -71 c21 -55 27 -91 28 -152 1 -73 -2 -85 -32 -137 -20 -36
-27 -58 -20 -58 26 0 198 191 332 370 185 246 268 372 334 510 87 183 272 593
270 596 -2 1 -35 -8 -73 -20z"/>
</g>
</svg>
