<svg xmlns="http://www.w3.org/2000/svg" xmlns:xlink="http://www.w3.org/1999/xlink" width="1125" zoomAndPan="magnify" viewBox="0 0 1125 37.5" height="37.5" preserveAspectRatio="xMidYMid meet" version="1.0"><path stroke-linecap="round" transform="matrix(5.921052, 0, 0, 5.526316, 12.952302, 18.490954)" fill="none" stroke-linejoin="miter" d="M 4.000035 0.000223289 L 181.624973 0.000223289 " stroke="rgb(42.349243%, 36.859131%, 90.19928%)" stroke-width="1" stroke-opacity="1" stroke-miterlimit="4"/><path stroke-linecap="butt" transform="matrix(5.921052, 0, 0, 5.526316, 12.952302, 18.490954)" fill="none" stroke-linejoin="round" d="M 0.500208 -1.499702 L 3.499965 -1.499702 L 3.499965 1.500149 L 0.500208 1.500149 Z M 0.500208 -1.499702 " stroke="rgb(42.349243%, 36.859131%, 90.19928%)" stroke-width="1" stroke-opacity="1" stroke-miterlimit="4"/><path stroke-linecap="butt" transform="matrix(5.921052, 0, 0, 5.526316, 1112.047651, 18.490954)" fill="none" stroke-linejoin="round" d="M -3.499958 -1.499702 L -0.500201 -1.499702 L -0.500201 1.500149 L -3.499958 1.500149 Z M -3.499958 -1.499702 " stroke="rgb(42.349243%, 36.859131%, 90.19928%)" stroke-width="1" stroke-opacity="1" stroke-miterlimit="4"/><path fill="rgb(42.349243%, 36.859131%, 90.19928%)" d="M 569.585938 10.871094 L 555.691406 10.871094 C 555.234375 10.871094 554.867188 11.238281 554.867188 11.695312 L 554.867188 25.589844 C 554.867188 26.046875 555.234375 26.414062 555.691406 26.414062 L 569.585938 26.414062 C 570.042969 26.414062 570.410156 26.046875 570.410156 25.589844 L 570.410156 11.695312 C 570.410156 11.238281 570.042969 10.871094 569.585938 10.871094 " fill-opacity="1" fill-rule="nonzero"/></svg>