<?xml version="1.0" encoding="UTF-8"?>
<svg width="107px" height="34px" viewBox="0 0 107 34" version="1.1" xmlns="http://www.w3.org/2000/svg" xmlns:xlink="http://www.w3.org/1999/xlink">
    <!-- Generator: Sketch 60 (88103) - https://sketch.com/ -->
    <title>logo</title>
    <desc>Created with Sketch.</desc>
    <g id="Page-1" stroke="none" stroke-width="1" fill="none" fill-rule="evenodd">
        <g id="Artboard" fill="#245ABC" fill-rule="nonzero">
            <g id="logo">
                <path d="M94.5443787,11 L94.5443787,11.0510544 C101.024162,11.6041435 102.927022,16.2756197 102.834813,18.9900111 C102.683925,26.8523862 96.6819527,33.1831299 87,33.9574547 L87,34 C97.637574,33.3533111 103.865878,27.7713651 104,19.772845 C103.983235,16.8287088 101.870809,11.4339623 94.5443787,11 Z" id="Path"></path>
                <path d="M87,34 C95.3014726,33.4361731 101.807535,26.5464071 102,18.1153558 C102,15.6 100.300283,11.4651685 94.5892351,11 L94.5892351,11.0430712 C99.3144476,11.5513109 100.98017,15.0400749 100.946176,17.3228464 C100.810198,24.9981273 94.9376771,33.1299625 87.0509915,33.9483146 L87,34 Z" id="Path"></path>
                <path d="M86,34 C93.1153333,33.2586272 98.844,24.0481608 99,16.4163823 C99,14.3492605 97.6913333,11.4622677 93.6266667,11 L93.6266667,11.0523322 C96.8246667,11.540766 97.96,13.7823284 97.96,15.6226773 C97.83,23.0974592 92.2486667,33.1277967 86.1213333,33.9389458 L86,34 Z" id="Path"></path>
                <path d="M86.4105668,33.9410413 L86.4105668,34 C91.5580593,33.2672282 96.8685556,22.6462481 96.9972429,15.5712098 C97.0711022,13.7474213 95.6522184,12.197566 93.7972185,12.075804 L93.7972185,12.12634 C95.1017092,12.3415538 96.0131087,13.5124938 95.8819529,14.8047473 C95.6846324,21.719755 90.5371399,33.1914242 86.4105668,33.9410413 Z M83.1762258,31.1952527 C83.2963339,24.5413476 88.6411469,12.8506891 92.6132952,12.0589587 L92.6132952,12 C87.6373859,12.7243492 82.1381481,23.5306279 82.0094608,30.3866769 C81.9412648,31.278903 82.2438788,32.1602305 82.8483486,32.8298382 C83.4528183,33.499446 84.3076516,33.9002929 85.2180644,33.9410413 L85.2180644,33.8905054 C84.5811927,33.8031882 84.0065704,33.4688252 83.6228063,32.9622518 C83.2390421,32.4556783 83.078181,31.8191938 83.1762258,31.1952527 L83.1762258,31.1952527 Z" id="Shape"></path>
                <path d="M81.144,29.3616376 C81.274,22.0815011 87.0893333,11.8631539 93,11.0523124 L93,11 C86.0666667,11.7410917 80.1473333,21.0875663 80,28.5246399 C80,30.5996967 81.352,33.6686884 85.3733333,34 L85.3733333,33.9476876 C82.236,33.5379075 81.1093333,31.2012889 81.144,29.3616376 L81.144,29.3616376 Z" id="Path"></path>
                <path d="M79.1230856,27.6709098 C79.250709,20.1362785 85.3170732,11.8697117 93,11.051666 L93,11 C84.7720923,11.6999827 78.3439589,18.486224 78,26.8356421 C78,29.3500562 79.7016449,33.6211157 85.4276801,34 L85.4276801,33.948334 C80.4929098,33.5005616 79.0890528,29.9269936 79.1230856,27.6709098 L79.1230856,27.6709098 Z" id="Path"></path>
                <path d="M76.676117,25.9453075 C76.8140168,18.1591751 83.6400544,11.7879329 93,11.0508344 L93,11 C82.519619,11.6354297 75.6591064,17.1933219 75.5212066,25.1234851 C75.4608755,28.0549343 77.6414153,33.4772681 85.1655704,33.9008879 C78.5980948,33.3925441 76.6330234,28.6480021 76.676117,25.9453075 Z M71.3497392,11.1694479 C67.7384895,10.6865213 63.3774098,12.7707309 60.9210705,16.4308062 L60.9641642,16.490113 C63.2912225,13.2028231 67.2213654,11.2456995 70.4447721,11.6862641 C72.6166931,11.9743256 74.1077342,13.5925533 73.8060785,16.7697021 C73.0390111,24.8608408 66.1009299,33.9517223 55,33.9263051 L55,33.9856119 C65.276881,34.3740908 74.0947553,26.8515557 75.150601,16.7951193 C75.4522567,13.2875471 73.7974597,11.4998714 71.3497392,11.1694479 Z" id="Shape"></path>
                <path d="M72.9655711,16.6360943 C73.2250347,13.7967678 71.9946751,12.3210084 70.0612528,12.0534731 C67.2741116,11.6651154 63.8843453,13.4170402 61.833746,16.4980116 L61.8755949,16.5497926 C63.7587984,13.8916997 66.771924,12.2347067 69.1907943,12.5799136 C70.864753,12.8129282 71.9695657,14.107454 71.7017323,16.6102038 C71.0572582,23.704205 64.4953402,33.4562992 56,34 C65.4913457,33.9913698 72.2625085,24.3687283 72.9655711,16.6360943 Z" id="Path"></path>
                <path d="M55,33.947708 L55,34 C63.228103,33.015168 69.3229941,23.0099717 69.9760181,16.5257679 C70.1675719,14.3992279 69.1923893,13.2662353 67.7383224,13.0396368 C65.5441616,12.7346003 62.8101676,14.216206 61.1210121,16.5867752 L61.1210121,16.6390671 C62.7318047,14.5561038 64.9782074,13.3185272 66.7544328,13.5625564 C68.008239,13.736863 68.7744539,14.6868337 68.6090211,16.4211839 C68.0604809,22.3301761 62.4618881,32.3876644 55,33.947708 L55,33.947708 Z" id="Path"></path>
                <path d="M55.2469527,33.9223547 L55.2469527,34 C61.1158591,32.3780766 66.5571738,21.9218472 66.9847656,16.7454961 C67.1021437,15.4255265 66.5320213,14.6490738 65.5929963,14.5196651 C64.1928429,14.3212383 62.4154027,15.3823903 61.1158591,17.1078406 L61.1158591,17.1596042 C62.1974148,15.8310074 63.6311047,14.8906369 64.6791238,15.0373002 C65.3582401,15.1321999 65.8026001,15.7447348 65.7103744,16.7196143 C65.3833925,21.2402943 60.3529013,31.6792692 55.2469527,33.9223547 Z M54.324696,28.0471961 C53.7008638,29.45503 53.255644,30.9396002 53,32.4643491 C53.0178428,33.0505558 53.3371442,33.5828223 53.8384152,33.861964 C53.9192141,33.9038365 54.0033663,33.9384734 54.0899398,33.965491 L54.0899398,33.8878457 C53.8482163,33.6466569 53.7410212,33.2962821 53.8048786,32.9561025 C54.1514415,31.4086039 54.6602671,29.904399 55.3224101,28.4699315 L66.2218077,0 L64.6875079,0.310581071 C64.7713494,0.672925653 61.8285121,8.1182441 61.7111339,8.48921594 L54.324696,28.0471961 Z" id="Shape"></path>
                <path d="M52.1973846,27.1618557 C51.6444925,28.5085937 51.245854,29.9155246 51.009332,31.3548969 C50.875467,32.8943299 52.1973846,33.7278351 53.9710969,34 L53.9710969,33.9489691 C52.7579447,33.7278351 51.8208891,33.0984536 51.9296545,31.907732 C52.2083132,30.4494547 52.6344832,29.0243583 53.2013727,27.6551546 L60.4468202,8.7056701 C60.6225181,8.20386598 63.3751188,1.43376289 62.9567904,1 L61.4675414,1.30618557 L61.4675414,1.39123711 C61.5261074,3.04123711 59.6436297,7.55747423 59.2587676,8.62061856 L52.1973846,27.1618557 Z" id="Path"></path>
                <path d="M56.9250532,8.02146035 L50.1575766,26.0630725 C49.616668,27.334755 49.2321265,28.6724754 49.0130768,30.044491 C48.8306203,32.246794 50.5639569,33.766815 53.8067061,34 C53.1384785,33.9232176 52.4814228,33.763757 51.8494457,33.5249935 C50.6226608,33.2148492 49.8133667,31.9971088 49.9668266,30.6922272 C50.2009945,29.2571923 50.6078125,27.8585888 51.1776741,26.5294426 L58.0778464,8.06464276 C58.4261725,7.08872023 60.4000198,2.42501963 59.9272917,1 L58.5008137,1.29364041 L58.5008137,1.38000523 C59.2804005,2.49411149 57.3811944,6.81235279 56.9250532,8.02146035 L56.9250532,8.02146035 Z" id="Path"></path>
                <path d="M55.2078372,8.65531915 L49.0446465,25.2 C48.5359507,26.3745477 48.1892152,27.6180464 48.0147234,28.893617 C47.7940255,31.6085106 50.0582216,33.8297872 54.5539178,34 C50.785707,33.7787234 48.7340347,31.9234043 48.9383846,29.4723404 C49.1274742,28.161172 49.490601,26.8837128 50.0173517,25.6765957 L56.3848922,8.65531915 C56.9570718,7.09787234 58.6490883,3.27659574 57.7336011,2 L56.2868043,2.30638298 L56.2868043,2.39148936 C57.2676835,3.79574468 55.8617567,6.95319149 55.2078372,8.65531915 Z" id="Path"></path>
                <path d="M54.0748559,33.9740961 C48.7440588,33.7409606 46.0571997,31.1246627 46.349063,28.0852671 C46.5079356,26.8703019 46.8374208,25.6841639 47.3276634,24.5623314 L53.4997136,8.51915812 C54.2722928,6.51592013 55.7144409,3.49379385 54.5813246,2 L53.1820976,2.29357798 L53.1820976,2.37992445 C54.3753034,3.7269293 53.2679398,5.93739881 52.4524394,8.17377226 L46.3061419,24.0615219 C45.8103618,25.1553992 45.4888124,26.3209431 45.3532941,27.5153805 C45.0614309,30.8224501 47.9886479,33.8186724 54.0576875,34 L54.0748559,33.9740961 Z M47.0529686,13.7517539 C46.9413738,11.6189962 45.6880785,10.6432812 44.1686726,10.6432812 C41.4045555,10.6432812 39.018144,12.8364814 37.5159065,15.8240691 L37.5159065,14.7706422 C37.3957275,12.4479223 35.7990636,10.6432812 32.9576886,10.6432812 C26.9487386,10.6432812 23.9871846,14.6238532 23,19.1311387 L23.0515053,19.1311387 C24.0987794,14.9087965 26.8972333,11.1009174 32.2967041,11.1009174 C33.3417538,11.0072307 34.3784561,11.3550074 35.1583953,12.0609128 C35.9383346,12.7668183 36.3912244,13.7672379 36.4085428,14.8224501 C36.5544744,17.559633 35.6531319,19.6923907 34.6916999,22.153265 L30.3137506,33.6632488 L31.4812038,33.6632488 L35.8591531,22.2482461 C36.1510164,21.4624933 36.4257112,20.7285483 36.6746534,20.0205073 C37.5330749,18.2072315 38.6061017,16.3507825 39.1640756,16.3507825 C39.5761179,16.3507825 39.7048811,16.704803 39.7306338,17.0242849 C39.735489,18.7426762 39.2882865,20.4317721 38.4344174,21.9201295 L38.4859227,21.9719374 C39.8176131,20.4608174 40.6118438,18.5471101 40.743571,16.5321101 C40.743571,15.9363195 40.4517078,15.5132218 39.8851496,15.5132218 C38.9494702,15.5132218 37.7562645,17.4473826 36.8806746,19.4937938 C36.9836852,19.1656773 37.0695273,18.8375607 37.1553695,18.5180788 C38.0910488,16.4716676 39.3872652,14.727469 40.5890552,14.727469 C41.3272976,14.727469 41.7736768,15.2369131 41.8165978,16.0744738 C41.9196084,18.1122504 40.099755,21.0825688 38.5717648,22.0582839 L38.6232701,22.1100917 C40.70065,21.1775499 42.984051,18.1122504 42.8552878,15.6082029 C42.7951983,14.4943335 42.2114717,13.8812736 41.2843765,13.8812736 C39.7563864,13.8812736 38.2799015,15.6686454 37.25838,17.8791149 C37.25838,17.706422 37.3270537,17.5337291 37.3528064,17.3524015 C38.4945069,14.9778737 40.1684287,13.0955208 42.0312032,13.0955208 C43.0441405,13.0955208 43.8167198,13.7862925 43.8853935,15.1332974 C44.0484936,18.1036158 41.2586239,21.2638964 38.7348649,22.1878036 L38.7863702,22.2396114 C41.8852716,21.445224 45.1215204,18.1036158 44.9412519,14.6670264 C44.8554097,13.0437129 43.9368988,12.2579601 42.743693,12.2579601 C40.5976394,12.2665947 38.6833596,14.2007555 37.4901538,16.7911495 L37.4901538,16.3680518 C38.8550439,13.5876956 41.0096817,11.4808419 43.4991038,11.4808419 C44.8382413,11.4808419 45.9456049,12.3443065 46.0743682,14.2266595 C46.2803893,18.1726929 42.6406824,21.5143011 38.9323018,22.3518618 L38.9838071,22.3950351 C43.2759143,21.7388019 47.2847424,18.1640583 47.0529686,13.7517539 L47.0529686,13.7517539 Z" id="Shape"></path>
                <path d="M34.9887324,15.3711816 C34.9726343,14.4284894 34.5756153,13.5340804 33.8909512,12.8980869 C33.206287,12.2620934 32.2943293,11.9405769 31.3693332,12.0090744 C26.6615833,12.0090744 23.9533615,15.5684481 23,19.5652388 L23.0590578,19.5652388 C24.1052244,15.8429058 26.5012836,12.4722218 30.7112607,12.4722218 C31.5281442,12.3950869 32.3392508,12.6709595 32.946007,13.2323009 C33.5527631,13.7936424 33.8991557,14.5886321 33.9003816,15.4226424 C34.0184972,17.6783419 32.9723305,20.1656151 32.1370846,22.4298913 L27.6993131,34 L28.880469,34 L33.2254354,22.5242362 C34.1534864,20.1656151 35.1152848,17.8155707 34.9887324,15.3711816 L34.9887324,15.3711816 Z" id="Path"></path>
                <path d="M32.9955888,15.5697526 C32.9988017,14.8477013 32.6909305,14.1579335 32.1479249,13.6706097 C31.6049193,13.183286 30.8773391,12.9437816 30.1446731,13.0111806 C26.3376575,13.0111806 24.0082507,16.2349814 23,19.6549394 L23.0521509,19.6549394 C24.1212443,16.4737814 26.311582,13.4717236 29.4754032,13.4717236 C30.0876367,13.4293537 30.6905174,13.6369995 31.1414431,14.0455454 C31.5923689,14.4540912 31.8512893,15.027251 31.8569609,15.6294527 C31.9525709,17.4119245 30.7009493,20.3031109 29.8752268,22.3243829 L25.1729541,34 L26.4332675,34 L31.048622,22.40114 C31.8656527,20.2945824 33.082507,17.6336674 32.9955888,15.5697526 Z" id="Path"></path>
                <path d="M30.9960103,15.7817507 C31.0003528,15.2840086 30.7905493,14.8075645 30.4182047,14.4696079 C30.04586,14.1316513 29.5455289,13.9635456 29.0402762,14.0066393 C26.4441689,14.0066393 24.3759368,16.7754734 23.3894161,19.7056814 L23.4499919,19.7056814 C24.4797811,17.0897276 26.2451341,14.4567872 28.3652883,14.4567872 C28.7594081,14.4118513 29.1538485,14.5382534 29.4450136,14.8027951 C29.7361787,15.0673369 29.8949706,15.4435811 29.8796842,15.8327109 C29.9575674,17.242608 28.5037474,20.4446034 27.8114521,22.2197148 L23,34 L24.202863,34 L28.9277782,22.3131417 C29.7412251,20.4446034 31.0825472,17.4039818 30.9960103,15.7817507 L30.9960103,15.7817507 Z" id="Path"></path>
                <path d="M28.9960588,15.7924919 C29.0217404,15.5025616 28.9209909,15.2158306 28.7208143,15.0091519 C28.5206377,14.8024732 28.2415059,14.6969836 27.9582351,14.7209577 C26.4768255,14.7209577 24.8782423,17.1126219 23.9157445,19.5985811 L23.9743313,19.5985811 C24.9451986,17.3869347 26.4433473,15.1752882 27.3221496,15.1752882 C27.6820401,15.1752882 27.9163874,15.3638782 27.941496,15.826781 C27.9917133,16.7954478 26.4182387,20.4300916 25.7821532,21.9988176 L21.0449903,34 L22.2167267,34 L26.9120419,22.0673958 C27.573236,20.4043748 29.0546456,16.9497487 28.9960588,15.7924919 Z M16.1990233,25.9677801 L16.9522825,24.3476205 L14.399571,11.0091635 C13.6881596,7.25450783 14.5418533,5.61720367 17.420977,5.05143364 L17.420977,5 L14.7594615,5 C13.9894633,5.39432456 12.3574019,6.57729826 13.2696823,11.0005912 L16.1990233,25.9677801 Z" id="Shape"></path>
                <path d="M14.1897255,29.1481263 L14.9396575,27.5393922 L11.5691764,10.9129537 C10.9372112,7.6869283 11.2068497,6.00973739 12.260125,5.05134258 L12.260125,5 L10.4400652,5 C9.88393585,6.2065506 9.7154118,7.41310121 10.3558032,10.6048982 L14.1897255,29.1481263 Z M12.6393042,32.3570375 L13.3892362,30.7654175 L9.17613482,10.5621127 C8.43462898,7.42165831 8.60315303,5.9840661 8.90649633,5 L7.2970916,5 C7.28028738,6.6992024 7.49580754,8.39255016 7.93748301,10.0315727 L12.6393042,32.3570375 Z M5.82250612,5 L3.92661049,5 L3.92661049,5.05134258 C4.76923077,6.09530835 5.02201685,7.37031573 5.69611307,10.1856005 L10.7518347,34 L11.8893721,34 L6.83365045,10.1085866 C6.39686413,8.42766017 6.0592162,6.72176749 5.82250612,5 L5.82250612,5 Z M2.03071487,5 L0,5 L0,5.05134258 C1.85376461,5.79580997 2.76379451,7.22484509 3.49687415,10.5706698 L8.49361239,33.9914429 L9.63114977,33.9914429 L4.60070671,10.4251992 C3.73280783,6.33490705 2.82277793,5.58188256 2.03071487,5 Z M27.8654526,5 C25.472411,6.42047802 24.0483827,9.04750664 21.0655069,15.5594571 L21.1413428,15.6022425 C24.5876597,9.04750664 26.5509649,6.43759221 31,5.07701387 L31,5 L27.8654526,5 Z M20.8969829,15.4311006 L20.9728187,15.4824432 C23.8040228,8.71377988 24.5455287,6.82266155 25.6999185,5.05134258 L25.6999185,5 L23.4079913,5 L23.4079913,5.06845677 C23.643925,7.78105636 22.7507475,10.2797285 20.8969829,15.4311006 Z" id="Shape"></path>
                <path d="M21.3869317,14.9505359 L21.4639835,15 C23.2875418,9.15498763 23.878272,6.57460841 22.2687463,5 L20,5 L20,5.04946414 C22.568392,5.92333059 23.0991931,8.42126958 21.3869317,14.9505359 L21.3869317,14.9505359 Z M104.756938,12.502061 L104.756938,13.6150041 L104.585711,13.6150041 L104.585711,12.502061 L104.089156,12.502061 L104.089156,12.3454246 L105.270616,12.3454246 L105.270616,12.502061 L104.756938,12.502061 Z M106.726038,13.6150041 L106.726038,12.5350371 L106.315095,13.5985161 L106.118185,13.5985161 L105.750049,12.5350371 L105.750049,13.6150041 L105.587384,13.6150041 L105.638752,12.3454246 L105.938398,12.3454246 L106.28085,13.4089035 L106.67467,12.3454246 L106.948632,12.3454246 L107,13.6150041 L106.726038,13.6150041 Z" id="Shape"></path>
            </g>
        </g>
    </g>
</svg>