<?xml version="1.0" encoding="UTF-8"?>
<svg width="124px" height="35px" viewBox="0 0 124 35" version="1.1" xmlns="http://www.w3.org/2000/svg" xmlns:xlink="http://www.w3.org/1999/xlink">
    <!-- Generator: Sketch 61 (89581) - https://sketch.com/ -->
    <title>Expedia</title>
    <desc>Created with Sketch.</desc>
    <g id="✅-Home" stroke="none" stroke-width="1" fill="none" fill-rule="evenodd">
        <g id="Home-Page" transform="translate(-837.000000, -693.000000)">
            <g id="Logos" transform="translate(320.000000, 693.000000)">
                <g id="Expedia" transform="translate(517.000000, 0.000000)">
                    <path d="M65.9813177,14.7722034 C69.773129,14.7722034 72.4248291,17.4094915 72.4248291,21.1823729 C72.4248291,25.14 69.6378905,27.6959322 65.3308038,27.6959322 C64.8010996,27.6959322 64.2550452,27.6423867 63.6214904,27.5587775 L63.2970919,27.5145763 L63.2988038,33.4027119 C62.2558746,34.1380443 61.1837726,34.4805576 60.2777314,34.6302162 L60.0547936,34.6637288 L60.0547936,15.3044068 C60.0547936,15.2863277 60.0631628,15.2705085 60.0763506,15.2619711 L60.0993025,15.2552542 L63.2440236,15.2552542 C64.1889807,14.9332203 65.0894289,14.7722034 65.9813177,14.7722034 Z M27.9408053,9.64033898 C28.9850513,12.5844068 29.0586621,15.8928814 27.9185509,19.0640678 C25.2754102,26.42 17.108037,30.2657627 9.67505968,27.6437288 C4.90799507,25.9617422 1.60262859,22.0321275 0.545394471,17.4863987 L0.473711717,17.160678 L12.761577,14.2962712 L17.4110395,12.9827119 L17.8013478,14.6522034 L17.1029013,22.6877966 L17.9622644,22.4115254 L21.2730378,11.8894915 L26.2340623,10.4877966 C26.8674574,10.2861017 27.5059881,9.92 27.9408053,9.64033898 Z M99.2737633,7.74101695 L99.2737633,26.6071186 C98.3835863,27.2311556 97.4820912,27.5708391 96.6760291,27.7496902 L96.4371803,27.7986441 L96.4388922,26.7325424 C95.129305,27.400339 94.0165838,27.6952542 92.8268281,27.6952542 C89.3927995,27.6952542 86.8968803,25.0138983 86.8968803,21.3155932 C86.8968803,17.600339 89.7266158,14.8037288 93.4739183,14.8037288 C94.1914094,14.8037288 94.9036579,14.8958633 95.6886479,15.0937579 L96.0297531,15.1850847 L96.0297531,9.00542373 C97.1715762,8.18677966 98.3116874,7.86813559 99.2737633,7.74101695 Z M113.099067,14.8040678 C113.991127,14.8040678 114.89428,14.9948983 115.925834,15.4062136 L116.274602,15.5515254 L116.339653,15.5515254 L116.339653,15.1210169 C116.339653,15.0640678 116.38019,15.0114576 116.434971,14.9926915 L116.478315,14.9854237 L119.032438,14.9820339 C119.089957,14.9820339 119.141999,15.0189153 119.160514,15.0709831 L119.167677,15.1125424 L119.164253,26.6023729 C118.319954,27.2033898 117.435444,27.5490508 116.656732,27.7406746 L116.401281,27.7989831 L116.401281,26.280339 C115.216661,27.6294915 113.951582,27.6972881 112.963828,27.6972881 C109.27473,27.6972881 106.795929,25.1786441 106.795929,21.4210169 C106.795929,17.7040678 109.565749,14.8040678 113.099067,14.8040678 Z M80.0319044,14.7705085 C83.4693568,14.7705085 85.6776803,17.0637288 85.6776803,20.2179661 C85.6776803,20.7281356 85.5886626,21.9145763 85.5818151,21.9518644 C85.5732557,21.9654237 85.5561369,21.9738983 85.54073,21.9738983 L76.791318,21.9738983 C76.9727772,23.9908475 78.2960594,25.14 80.4376196,25.14 C81.7557662,25.14 83.156083,24.6942373 85.1350148,23.6518644 C85.1709642,23.6315254 85.2069137,23.6620339 85.2069137,23.699322 L85.2034899,26.3637288 C85.2000662,26.3857627 85.1897949,26.399322 85.174388,26.4044068 C83.3341184,27.1722034 81.4852894,27.6959322 80.0319044,27.6959322 C76.2640594,27.6959322 73.5336129,24.9772881 73.5336129,21.2332203 C73.5336129,17.4891525 76.2640594,14.7705085 80.0319044,14.7705085 Z M27.1209866,24.5486441 C27.9135864,24.5486441 28.6034736,25.1469492 28.6034736,26.050339 C28.6034736,26.9520339 27.9135864,27.5469492 27.1209866,27.5469492 C26.2513522,27.5469492 25.6316522,26.9045763 25.6316522,26.050339 C25.6316522,25.1469492 26.3181155,24.5486441 27.1209866,24.5486441 Z M27.1209866,24.7011864 C26.4071332,24.7011864 25.8524845,25.2554237 25.8524845,26.050339 C25.8524845,26.7927119 26.3369462,27.3994915 27.1209866,27.3994915 C27.8279925,27.3994915 28.3809293,26.8469492 28.3809293,26.050339 C28.3809293,25.2554237 27.8279925,24.7011864 27.1209866,24.7011864 Z M104.932207,15.2569492 C104.957885,15.2620339 104.97158,15.280678 104.97158,15.3044068 L104.97158,27.1094915 C104.97158,27.14 104.951038,27.1586441 104.92536,27.1586441 L101.784062,27.1586441 C101.753248,27.1586441 101.734418,27.14 101.734418,27.1094915 L101.734418,15.3044068 C101.734418,15.280678 101.751536,15.2620339 101.772079,15.2569492 L104.932207,15.2569492 Z M49.6701951,15.2549153 C49.6821783,15.2549153 49.6958733,15.2616949 49.7061446,15.2786441 L52.5957958,18.8244068 L55.5368034,15.2769492 C55.5453628,15.2616949 55.5590578,15.2549153 55.5727528,15.2549153 L58.6900839,15.2549153 C58.7089146,15.2549153 58.7277453,15.2718644 58.7345928,15.2820339 C58.7431522,15.300678 58.7397284,15.3210169 58.7277453,15.3379661 L54.1758598,20.7498305 L59.3748354,27.0820339 C59.3885304,27.0955932 59.3936661,27.1176271 59.3833948,27.1294915 C59.3748354,27.1498305 59.3577166,27.1583051 59.3423097,27.1583051 L55.5196846,27.1583051 C55.5025658,27.1583051 55.4922945,27.1549153 55.4820233,27.1430508 L52.1883687,23.16 L48.8912903,27.1430508 C48.8844428,27.1549153 48.8724596,27.1583051 48.8553409,27.1583051 L45.7945018,27.1583051 C45.7756711,27.1583051 45.7619761,27.1498305 45.748281,27.1294915 C45.7431454,27.1176271 45.7431454,27.0955932 45.7551285,27.0820339 L50.6065928,21.1820339 L45.8116205,15.3379661 C45.7979255,15.3176271 45.7979255,15.300678 45.8030612,15.2820339 C45.8116205,15.2718644 45.8304512,15.2549153 45.8458581,15.2549153 L49.6701951,15.2549153 Z M35.6235457,8.06881356 C35.6560714,8.06881356 35.6868852,8.07220339 35.7142753,8.07220339 L44.9669796,8.07050847 C44.8454362,8.94677966 44.5458574,10.0010169 43.8593941,11.0450847 L37.0512525,11.0450847 L37.0512525,15.2620339 L43.7909189,15.2620339 C43.818309,15.2620339 43.8388515,15.280678 43.8388515,15.3077966 L43.8388515,18.2332203 C43.8388515,18.2569492 43.818309,18.2789831 43.7909189,18.2789831 L37.0512525,18.2789831 L37.0512525,24.2044068 L44.9840984,24.2010169 C44.8642669,25.0789831 44.5646881,26.1061017 43.8765129,27.1535593 L35.6235457,27.1535593 C34.6135373,27.1535593 33.7832761,26.3789831 33.6839871,25.399322 C33.6788515,25.3840678 33.6737159,25.3705085 33.672004,25.3569492 L33.672004,9.86711864 C33.6737159,9.85525424 33.6788515,9.83830508 33.6839871,9.82813559 C33.7832761,8.84677966 34.6135373,8.06881356 35.6235457,8.06881356 Z M27.1708023,25.1608475 C27.6021957,25.1608475 27.8247399,25.3133898 27.8247399,25.6710169 C27.8247399,25.9572693 27.6691915,26.0921929 27.4434583,26.1412594 L27.3556852,26.1557627 L27.8589775,26.9354237 L27.5251612,26.9354237 L27.061242,26.1761017 L26.7873415,26.1761017 L26.7873415,26.9354237 L26.4911864,26.9354237 L26.4911864,25.1608475 L27.1708023,25.1608475 Z M27.1382766,25.3794915 L26.765087,25.3794915 L26.765087,25.9269492 L27.1091747,25.9269492 C27.343702,25.9269492 27.5491275,25.9049153 27.5491275,25.6354237 C27.5491275,25.4083051 27.3265832,25.3794915 27.1382766,25.3794915 Z M65.4489234,17.1857627 C64.8693302,17.1857627 64.2847061,17.2716845 63.6346813,17.452067 L63.3039394,17.5501695 L63.2970919,25.1230508 C63.9681483,25.3010169 64.551899,25.380678 65.1219546,25.380678 C67.5442629,25.380678 69.1106319,23.7247458 69.1106319,21.1620339 C69.1106319,18.7857627 67.6401281,17.1857627 65.4489234,17.1857627 Z M113.747869,17.1769492 C111.556664,17.1769492 110.082737,18.9244068 110.082737,21.5294915 C110.082737,23.8227119 111.33412,25.1820339 113.422612,25.1820339 C114.085576,25.1820339 114.820693,24.9663174 115.663977,24.51833 L115.920243,24.3769492 L115.920243,17.8566102 C115.047185,17.3989831 114.335043,17.1769492 113.747869,17.1769492 Z M94.0200076,17.1511864 C91.7123951,17.1511864 90.2196369,18.8613559 90.2196369,21.5054237 C90.2196369,23.7901695 91.38885,25.1545763 93.3386798,25.1545763 C94.0828335,25.1545763 94.8699724,24.9582542 95.7375355,24.5458407 L96.0297531,24.400339 L96.0297531,17.6427119 C95.2765265,17.3054237 94.6568264,17.1511864 94.0200076,17.1511864 Z M80.0319044,17.3535593 C78.3388564,17.3535593 77.1833383,18.3705085 76.8529457,20.1383051 L82.6117056,20.1383051 L82.6117056,20.0247458 C82.6117056,18.6094915 81.5589002,17.3535593 80.0319044,17.3535593 Z M121.776066,14.3694915 C122.566954,14.3694915 123.255129,14.9677966 123.255129,15.8711864 C123.255129,16.7711864 122.566954,17.3677966 121.776066,17.3677966 C120.90472,17.3677966 120.286732,16.7254237 120.286732,15.8711864 C120.286732,14.9677966 120.973195,14.3694915 121.776066,14.3694915 Z M121.776066,14.5220339 C121.060501,14.5220339 120.50414,15.0762712 120.50414,15.8711864 C120.50414,16.6135593 120.992026,17.220339 121.776066,17.220339 C122.48136,17.220339 123.036009,16.6677966 123.036009,15.8711864 C123.036009,15.0762712 122.48136,14.5220339 121.776066,14.5220339 Z M121.824341,14.9808475 C122.255735,14.9808475 122.478279,15.1333898 122.478279,15.4910169 C122.478279,15.8130508 122.279701,15.9452542 122.009224,15.9757627 L122.510805,16.7554237 L122.1787,16.7554237 L121.714781,15.9977966 L121.437457,15.9977966 L121.437457,16.7554237 L121.144725,16.7554237 L121.144725,14.9808475 L121.824341,14.9808475 Z M19.2574718,0.993389831 C23.0167575,2.31881356 25.8636117,5.0459322 27.4197094,8.3679661 C26.988316,8.36506053 26.4412136,8.38830508 25.9271708,8.48893265 L25.6735932,8.5459322 L20.72284,9.94762712 L12.3106681,2.74762712 L11.4341862,2.96288136 L16.3130405,9.41881356 L16.8882317,11.030678 L12.2028198,12.3561017 L0.342924185,16.4357627 C-0.00116343152,14.2018644 0.193990739,11.8527119 1.01226875,9.57644068 C3.65540945,2.21542373 11.8262064,-1.62864407 19.2574718,0.993389831 Z M121.791816,15.2011864 L121.418626,15.2011864 L121.418626,15.7469492 L121.764426,15.7469492 C121.995529,15.7469492 122.202666,15.7266102 122.202666,15.4554237 C122.202666,15.2283051 121.980122,15.2011864 121.791816,15.2011864 Z M103.355567,8.94847458 C104.428915,8.94847458 105.303685,9.82135593 105.303685,10.899322 C105.303685,11.9467797 104.428915,12.7976271 103.355567,12.7976271 C102.282219,12.7976271 101.409161,11.9467797 101.409161,10.899322 C101.409161,9.82135593 102.282219,8.94847458 103.355567,8.94847458 Z" id="Combined-Shape" fill="#072F54"></path>
                    <path d="M17.4106971,12.4498305 L17.8027173,10.7820339 L17.1025589,2.74644068 L17.9619221,3.02271186 L21.2726954,13.5430508 L26.2337199,14.9447458 C26.867115,15.1464407 27.5056458,15.5159322 27.9404629,15.7922034 C27.7881057,16.2244068 27.6134941,16.6498305 27.4200518,17.0650847 C26.9167595,17.0684746 26.2559743,17.0345763 25.6739356,16.8888136 L20.7231824,15.4837288 L12.3092986,22.6871186 L11.4345286,22.4701695 L16.311671,16.0142373 L16.8885741,14.4040678 L12.2014503,13.0752542 L0.343266561,8.99898305 C0.380927892,8.75491525 0.42372486,8.51254237 0.473369342,8.27186441 L12.7629465,11.1362712 L17.4106971,12.4498305 Z" id="path74" fill="#FBC108" transform="translate(14.141865, 12.716780) scale(-1, 1) rotate(-180.000000) translate(-14.141865, -12.716780) "></path>
                </g>
            </g>
        </g>
    </g>
</svg>