<?xml version="1.0" encoding="utf-8"?>
<!-- Generator: Adobe Illustrator 19.2.1, SVG Export Plug-In . SVG Version: 6.00 Build 0)  -->
<svg version="1.1" id="layer" xmlns="http://www.w3.org/2000/svg" xmlns:xlink="http://www.w3.org/1999/xlink" x="0px" y="0px"
	 viewBox="0 0 652 652" style="enable-background:new 0 0 652 652;" xml:space="preserve">
<style type="text/css">
	.st0{fill:#333333;}
	.st1{fill:#FF3B59;}
	.st2{fill:#03EBC3;}
</style>
<path id="LODGIFY" class="st0" d="M218.5,295.3h17.3v47.6H265v13.8h-46.5V295.3z M302.6,357.9c-6.5,0-12.3-1.4-17.4-4.1
	c-5.2-2.7-9.2-6.5-12.1-11.4c-2.9-4.9-4.4-10.3-4.4-16.4s1.5-11.5,4.4-16.4c2.9-4.9,7-8.7,12.1-11.4c5.2-2.7,11-4.1,17.4-4.1
	c6.5,0,12.3,1.4,17.4,4.1c5.2,2.7,9.2,6.5,12.1,11.4s4.4,10.3,4.4,16.4s-1.5,11.5-4.4,16.4s-7,8.7-12.1,11.4
	C314.9,356.5,309.1,357.9,302.6,357.9z M302.6,343.5c3.1,0,5.9-0.7,8.4-2.2c2.5-1.5,4.5-3.5,5.9-6.2c1.5-2.7,2.2-5.7,2.2-9.2
	s-0.7-6.5-2.2-9.2c-1.5-2.7-3.4-4.7-5.9-6.2c-2.5-1.5-5.3-2.2-8.4-2.2s-5.9,0.7-8.4,2.2c-2.5,1.5-4.5,3.5-5.9,6.2
	c-1.5,2.7-2.2,5.7-2.2,9.2s0.7,6.5,2.2,9.2c1.5,2.7,3.4,4.7,5.9,6.2C296.7,342.8,299.5,343.5,302.6,343.5z M345.7,295.3h28.9
	c6.7,0,12.6,1.3,17.8,3.8s9.2,6.1,12.1,10.7c2.9,4.6,4.3,10,4.3,16.2s-1.4,11.6-4.3,16.2c-2.9,4.6-6.9,8.2-12.1,10.7
	s-11.1,3.8-17.8,3.8h-28.9V295.3z M373.9,342.8c5.2,0,9.4-1.5,12.6-4.5c3.2-3,4.8-7.1,4.8-12.4s-1.6-9.4-4.8-12.4
	c-3.2-3-7.4-4.5-12.6-4.5H363v33.7H373.9z M458.8,324.7h15.3v25.4c-3.5,2.5-7.5,4.4-12.1,5.8c-4.5,1.3-9.1,2-13.6,2
	c-6.4,0-12.2-1.4-17.3-4.1c-5.1-2.7-9.1-6.5-12.1-11.4c-2.9-4.9-4.4-10.3-4.4-16.5s1.5-11.6,4.4-16.5c2.9-4.9,7-8.6,12.1-11.4
	c5.2-2.7,11-4.1,17.6-4.1c5.7,0,10.8,1,15.4,2.9c4.5,1.9,8.3,4.7,11.4,8.3l-11,10c-4.1-4.6-9.1-6.8-14.9-6.8
	c-5.2,0-9.5,1.6-12.7,4.8c-3.2,3.2-4.8,7.4-4.8,12.8c0,3.4,0.7,6.4,2.2,9.1c1.5,2.7,3.5,4.7,6.1,6.2c2.6,1.5,5.6,2.2,9,2.2
	c3.3,0,6.4-0.7,9.3-2V324.7z M485.1,295.3h17.3v61.4h-17.3V295.3z M532,308.7v13.5h27v13.4h-27v21h-17.3v-61.4h48v13.4H532z
	 M603.6,334.7v22h-17.3v-22.3L563,295.3h18.3l14.5,24.4l14.5-24.4H627L603.6,334.7z"/>
<polygon id="Fill-1" class="st1" points="27,262.2 27,389.8 154.7,389.8 154.7,326 90.8,326 90.8,262.2 "/>
<polygon id="Fill-2" class="st2" points="116.4,300.5 154.7,300.5 154.7,262.2 116.4,262.2 "/>
</svg>
