<?xml version="1.0" encoding="UTF-8"?>
<svg width="140px" height="24px" viewBox="0 0 140 24" version="1.1" xmlns="http://www.w3.org/2000/svg" xmlns:xlink="http://www.w3.org/1999/xlink">
    <!-- Generator: Sketch 61 (89581) - https://sketch.com/ -->
    <title>logo_bookingcom</title>
    <desc>Created with Sketch.</desc>
    <g id="✅-Home" stroke="none" stroke-width="1" fill="none" fill-rule="evenodd">
        <g id="Home-Page" transform="translate(-463.000000, -700.000000)">
            <g id="Logos" transform="translate(320.000000, 693.000000)">
                <g id="logo_bookingcom" transform="translate(143.000000, 7.000000)">
                    <path d="M86.7675694,6.28003453 C86.7675694,6.16589984 86.7856615,6.04794474 86.7630463,5.93834678 C86.7332895,5.7948427 86.6711573,5.65826312 86.6192614,5.50807332 C86.068165,5.50807332 85.5692025,5.51141618 85.0702401,5.507357 C84.363694,5.50162638 83.7502273,5.69240801 83.3645788,6.33638555 C83.2119859,6.26021616 83.0834364,6.21365494 82.9741693,6.1389182 C82.0769415,5.52598149 81.0828255,5.22321415 80.0027718,5.23849578 C79.5114271,5.24518149 79.0127027,5.2841019 78.5313563,5.37937333 C77.5691396,5.56991618 76.7047633,5.99111617 75.9846482,6.66852227 C74.6798709,7.89606714 74.2159025,9.49466914 74.0704511,11.2105099 C74.0233163,11.7680507 74.0806875,12.3291731 74.174719,12.8957874 C74.4501482,14.5545608 75.0659955,15.9993914 76.4519493,17.0242159 C77.3736968,17.7056812 78.3770969,18.1743975 79.5611805,18.1273587 C79.9023127,18.1137485 80.2441591,18.1204342 80.5855294,18.1244934 C81.0661617,18.130224 81.5153707,18.0017628 81.9455354,17.8038179 C82.2647666,17.656971 82.5747137,17.4903057 82.9179884,17.3179097 C83.0015456,17.9021934 82.8165772,18.4134118 82.5423383,18.8217179 C82.0983664,19.4828872 81.4134833,19.8381852 80.6002888,19.8990729 C80.339381,19.9186525 80.0791873,19.9726158 79.8189936,19.9711831 C79.5290431,19.9695117 79.2388546,19.9262933 78.9498563,19.8935811 C78.8174979,19.878777 78.6863298,19.8498852 78.5558759,19.8212321 C77.8621848,19.6693709 77.196108,19.3279219 76.3774382,19.5428199 C75.6513717,20.1994525 75.5723376,21.2421852 75.0888487,22.1137157 C76.0989144,22.6676749 77.0839843,23.0623708 78.1618955,23.2013382 C78.211649,23.2077851 78.2525943,23.2825218 78.2975867,23.3252626 L81.4399074,23.3252626 C81.4646651,23.2904014 81.4884705,23.2254545 81.5139424,23.2247382 C82.1083647,23.2077851 82.6554142,22.9838137 83.1846096,22.7641402 C84.1951514,22.3443729 85.0531001,21.7116178 85.7089406,20.7997341 C86.4504806,19.7689403 86.7373364,18.5934485 86.7518578,17.3780812 C86.7954218,13.6792098 86.7675694,9.97962218 86.7675694,6.28003453 L86.7675694,6.28003453 Z M82.6206582,13.5853711 C81.996241,14.8749976 80.3827069,15.1674976 79.2826566,14.4886588 C78.4670815,13.98532 78.0797667,13.1880486 78.0295372,12.2362895 C78.0066839,11.8045834 78.011207,11.3697732 78.0295372,10.9375895 C78.0607223,10.2069365 78.3394843,9.57585281 78.8979604,9.10212221 C79.2255235,8.82490385 79.6035542,8.63006304 80.0663323,8.65895487 C80.5581532,8.68975691 81.0533067,8.61406508 81.5367956,8.79935487 C81.9798152,8.96888548 82.2945234,9.25613241 82.5421002,9.65369362 C82.9329859,10.2811956 82.9810729,10.9681528 82.9358425,11.653916 C82.9660754,12.3344262 82.920607,12.9659874 82.6206582,13.5853711 L82.6206582,13.5853711 Z M11.1885663,10.0696405 C10.7626866,9.70479158 10.3294272,9.34829975 9.84570025,8.94309772 C10.0639963,8.74586916 10.3213333,8.55222222 10.5320117,8.31678958 C11.5192241,7.21436307 11.8215534,5.88677127 11.5699297,4.47513049 C11.3742488,3.3765244 10.847196,2.41855708 9.87593319,1.7526122 C8.98299038,1.14063058 8.00577624,0.757395898 6.94071995,0.724206103 C5.23458263,0.67072039 3.52558864,0.717281614 1.81802299,0.701283655 C1.28120986,0.696269369 0.856044346,0.901855078 0.489678315,1.26240609 C0.317564838,1.4319367 0.17020904,1.62701628 0.0116646755,1.81039587 L0.0116646755,18.391922 C1.87872691,18.3928771 3.7460272,18.4012342 5.61308944,18.389773 C6.24179164,18.3859526 6.86525664,18.3938322 7.50014827,18.2861444 C8.26335132,18.1567281 8.97156376,17.9482771 9.65739906,17.596322 C11.4128137,16.6956608 12.246957,15.229818 12.3031379,13.2950201 C12.3171831,12.8043364 12.2790944,12.2928793 12.1500688,11.8224915 C11.972242,11.174216 11.7272838,10.5311936 11.1885663,10.0696405 L11.1885663,10.0696405 Z M3.51416202,4.32971621 C3.83958266,3.85503051 4.18666627,3.70961623 4.63182838,3.72633051 C5.17625925,3.74686521 5.72211845,3.72394276 6.26702543,3.73492643 C7.07950579,3.75187949 7.71511157,4.33401417 7.9441201,5.12507742 C8.21907316,6.07397127 7.91150662,6.79841615 7.20519861,7.39392225 C7.02713377,7.54411205 6.77289146,7.67925898 6.54959624,7.68594469 C5.53262699,7.71698551 4.5142294,7.6995549 3.3989436,7.6995549 C3.44060315,6.47965085 3.479168,5.35191414 3.51416202,4.32971621 L3.51416202,4.32971621 Z M8.31381889,14.268269 C7.90650747,14.9509282 7.29066022,15.1944792 6.5812575,15.2243261 C5.56166965,15.2677833 4.53898708,15.2355486 3.43488984,15.2355486 C3.43488984,14.0973057 3.42393933,13.0290241 3.44250759,11.9612201 C3.44726868,11.6990446 3.53011168,11.4328099 3.61247857,11.1801854 C3.66604086,11.0159079 3.7534069,10.8447058 3.95670553,10.7979058 C4.25855876,10.7286609 4.55922172,10.6047365 4.86226523,10.5990058 C5.53476948,10.5865895 6.20417902,10.5720242 6.88073019,10.7045446 C7.8874631,10.9017732 8.60710216,11.6715854 8.61757656,12.7088262 C8.62328987,13.2486976 8.61471991,13.7637364 8.31381889,14.268269 L8.31381889,14.268269 Z M57.5306555,0.165948975 L56.0278168,0.165948975 C55.9835386,0.210599994 55.9473543,0.273875503 55.8940301,0.297036727 C55.418397,0.501428558 55.056554,0.828073447 54.8408765,1.30013262 C54.6271035,1.76693873 54.5228356,2.22371627 54.633531,2.77242238 C54.8023117,3.60837541 55.3512656,4.05679581 56.0223415,4.39537948 C56.3965634,4.5842509 56.82649,4.62508151 57.2647485,4.48515906 C58.1676896,4.19695703 58.7573508,3.65422031 58.945652,2.68765707 C59.0668218,2.06445301 58.9535078,1.38203262 58.5128688,0.953191811 C58.2136341,0.661885697 57.859885,0.42645305 57.5306555,0.165948975 L57.5306555,0.165948975 Z M54.0964798,5.69240801 C54.0093518,5.62149169 53.9574559,5.54197945 53.9048458,5.54174067 C52.5879278,5.53481618 51.2705336,5.53648761 49.9110038,5.53648761 C49.7795977,5.68309577 49.6055797,5.83567331 49.4825055,6.02239576 C48.9145072,6.88437533 48.3503178,7.7492202 47.806125,8.6264814 C47.5554535,9.03096711 47.344061,9.45837526 46.9336549,9.73248954 C46.6068059,9.75827729 46.2797189,9.78382627 45.9221609,9.81176301 L45.9221609,9.13889364 C45.9221609,6.83256104 45.905021,4.52598968 45.9309689,2.21989586 C45.9409672,1.35266323 45.2794135,0.659497942 44.4119425,0.702238757 C43.7989519,0.732563246 43.1828666,0.704626512 42.5682096,0.708685696 C42.417283,0.709640798 42.2661183,0.734951001 42.1223334,0.748322429 C42.0185415,2.35766933 42.0632958,17.830322 42.1739912,18.3821322 L45.9221609,18.3821322 L45.9221609,16.6106567 C45.9221609,16.0397445 45.9197804,15.4688322 45.9228751,14.89792 C45.9259698,14.3353649 45.9090679,13.7713772 45.93573,13.2026139 L46.7332129,13.2026139 C46.9012795,13.4394792 47.1091011,13.6799262 47.2583614,13.9526078 C47.8956335,15.1166384 48.5160038,16.29022 49.1420874,17.4602199 C49.4839338,18.0989444 50.020985,18.4009954 50.7380055,18.399324 C51.511921,18.3976526 52.2860746,18.399324 53.0599901,18.399324 L54.1171905,18.399324 C52.767421,16.0459526 51.4526454,13.7532302 50.1528673,11.4870119 C51.4793075,9.5378875 52.7869414,7.61693857 54.0964798,5.69240801 L54.0964798,5.69240801 Z M26.1457749,9.24467118 C25.5842041,7.82873245 24.6300813,6.82587533 23.3357784,6.10047535 C22.2754832,5.50616312 21.0980651,5.37197129 19.9215993,5.23921211 C19.8094756,5.22631823 19.6916386,5.2246468 19.5809432,5.24422639 C19.1217358,5.32541006 18.6660993,5.4273672 18.2057017,5.50234271 C17.1804006,5.66900801 16.2848392,6.14894678 15.5002112,6.78241819 C13.9583315,8.02763244 13.3153461,9.75206913 13.1346626,11.6756446 C13.0968119,12.0767874 13.2039365,12.482467 13.2325031,12.8800282 C13.2884459,13.6653609 13.5481635,14.3745241 13.8633478,15.0619588 C14.3758793,16.1794281 15.2135935,17.0084567 16.2619859,17.6572097 C17.3020465,18.3011873 18.4318536,18.5798383 19.6242691,18.6619771 C20.0934747,18.6942117 20.5622042,18.6027607 21.0302196,18.5585873 C22.0721846,18.4609281 22.9801248,18.0347138 23.8435489,17.5256444 C24.3591751,17.2214444 24.8429021,16.791171 25.2076017,16.3150526 C26.1726751,15.0547955 26.7442442,13.631216 26.6578304,12.028316 C26.6894916,11.0445609 26.503571,10.1472426 26.1457749,9.24467118 L26.1457749,9.24467118 Z M22.858717,12.6992752 C22.8027741,12.9380507 22.7556393,13.1796915 22.6842229,13.4139303 C22.3509465,14.5070445 21.1175856,15.3640098 19.9713527,15.3998261 C18.6794304,15.4397016 17.3308511,14.4635874 17.0856548,13.0669894 C17.0199518,12.6923507 16.9609142,12.3167568 16.898782,11.9416405 C16.842363,11.3229732 17.0378059,10.7518222 17.2830021,10.2300977 C17.6074705,9.53932016 18.1602333,9.01114874 18.8805865,8.73202018 C20.0775251,8.26807937 21.2644653,8.60714059 22.0205267,9.44739159 C22.8484806,10.3676324 23.146763,11.4683875 22.858717,12.6992752 L22.858717,12.6992752 Z M72.5735638,7.80581 C72.2729008,6.93213043 71.7099017,6.30295698 70.9238454,5.85310393 C70.4103616,5.55917128 69.8423633,5.46843659 69.2715084,5.34093047 C68.1381304,5.08735089 67.089738,5.30583047 66.0789581,5.76499577 C65.515721,6.02072433 65.005808,6.3953631 64.4456655,6.73227533 C64.3773439,6.60835085 64.3237816,6.45744473 64.2259411,6.34593657 C64.0516852,6.1467978 63.8824283,5.89560597 63.6550862,5.79914066 C62.7409565,5.41160802 61.7806443,5.47679373 60.8258073,5.54818761 C60.7020189,8.17161407 60.7598661,17.8561097 60.8969856,18.3730587 L64.6344428,18.3730587 C64.6344428,16.2656261 64.6513447,14.2334078 64.6246826,12.2019058 C64.6161126,11.5455119 64.7579932,10.9511997 65.0648455,10.3879283 C65.5623797,9.47461199 66.3317721,8.93736711 67.3608822,8.81248752 C67.9222149,8.74467528 68.428319,8.88889568 68.8127772,9.35235894 C69.0741611,9.66802015 69.1401023,10.0304814 69.1398642,10.4220732 C69.13915,12.4086854 69.1408164,14.3950588 69.1417686,16.3814322 C69.1420067,16.541173 69.1324845,16.7018689 69.1443872,16.8608934 C69.1993779,17.5829506 69.7904674,18.3372424 70.4391662,18.3785505 C71.2697387,18.4317975 72.1076909,18.4317975 72.9739716,18.3656567 L72.9739716,17.8530056 C72.9734955,15.29572 72.9632592,12.7384344 72.9780185,10.1813875 C72.9825416,9.35999975 72.8399469,8.57944263 72.5735638,7.80581 L72.5735638,7.80581 Z M38.45415,6.63676513 C37.8466347,6.18237535 37.150325,5.85620801 36.4206876,5.60955291 C35.6910502,5.36289782 34.9245144,5.38534271 34.1805938,5.25019578 C33.9551561,5.20912639 33.6994855,5.3688672 33.4616689,5.35740598 C32.7451246,5.32349986 32.0938072,5.57922842 31.4427278,5.79890189 C30.5995384,6.08304474 29.8844224,6.62363248 29.2640521,7.23800185 C28.6429677,7.85284877 28.182332,8.61788549 27.8992851,9.45455485 C27.707175,10.0218854 27.5379182,10.6152426 27.4862604,11.2081222 C27.3822305,12.407014 27.5176836,13.5765364 27.9959353,14.7147792 C28.4944216,15.9014935 29.2409608,16.8704445 30.305303,17.5461791 C31.4772458,18.2902036 32.7910691,18.6593505 34.4586416,18.6741546 C34.7519248,18.6392934 35.3277789,18.6431138 35.8603071,18.492924 C37.1003335,18.1431179 38.2277601,17.5989485 39.1614102,16.6383547 C40.342161,15.4229873 40.8511218,13.9571445 40.9901457,12.3329936 C41.0851295,11.221016 40.8463607,10.1381691 40.4035791,9.11883649 C39.9734145,8.12791815 39.3149554,7.28074266 38.45415,6.63676513 L38.45415,6.63676513 Z M36.9348855,13.5445405 C36.5709001,14.5617241 35.4508532,15.3408486 34.3617534,15.3950506 C32.8377278,15.4714588 31.4998609,14.2400935 31.2687099,12.7658935 C31.1406365,11.948565 31.1896758,11.1878262 31.4622483,10.4631426 C31.9414522,9.18903649 33.0760205,8.38412427 34.4655452,8.54577528 C36.0716996,8.73249773 37.1362797,9.92159974 37.1729401,11.5455119 C37.1760349,11.6823303 37.1734163,11.8191487 37.1734163,12.0598344 C37.1962695,12.5010915 37.1239009,13.0161303 36.9348855,13.5445405 L36.9348855,13.5445405 Z M58.8944703,12.3220099 C58.8556674,10.5992446 58.8078184,8.87671813 58.7687775,7.15419165 C58.7506853,6.36193453 58.2900497,5.84952229 57.5001845,5.63319169 C56.7153185,5.41829373 55.9323569,5.56490189 55.0974994,5.50043251 L55.0974994,18.366373 L58.8916136,18.366373 C58.8916136,18.179173 58.9408909,18.0020016 58.8820914,17.8747342 C58.7206904,17.5242118 58.7594933,17.1627057 58.7721102,16.8057363 C58.8087706,15.7668241 58.6773645,14.7255241 58.8818534,13.6866119 C58.9680292,13.2477425 58.9049447,12.7775935 58.8944703,12.3220099 L58.8944703,12.3220099 Z" id="Fill-24" fill="#1437A5"></path>
                    <path d="M139.237898,8.52786712 C139.027696,7.23370389 138.353049,6.27167738 137.167299,5.71915087 C136.643579,5.47536108 136.081294,5.296757 135.476159,5.36671822 C135.251436,5.39274475 135.021475,5.3688672 134.793895,5.37125496 C133.620286,5.38367129 132.606173,5.78576923 131.769411,6.61933452 C131.502314,6.88556921 131.236407,7.15323654 130.957169,7.43284266 C130.792435,7.20194675 130.651507,7.02644675 130.533908,6.83638145 C130.082318,6.10668351 129.414337,5.72583658 128.603523,5.48777741 C127.991961,5.30821823 127.391349,5.40850394 126.78669,5.37531414 C126.33153,5.35000394 125.902079,5.48992638 125.495244,5.67879781 C124.919152,5.94646515 124.394718,6.29173453 123.963601,6.77047941 C123.869807,6.87458553 123.734592,6.9412039 123.623897,7.02143247 C123.473446,6.68475901 123.346087,6.40013861 123.187781,6.04627331 C122.882595,5.92425903 122.544319,5.69957128 122.187713,5.66542638 C121.516638,5.60143455 120.834849,5.64704067 120.130684,5.64704067 L120.130684,18.3654179 L123.657939,18.3654179 L123.657939,17.6698648 C123.657939,16.0719792 123.674603,14.4738547 123.651035,12.8764466 C123.639132,12.0512385 123.81934,11.2666222 124.109766,10.5180609 C124.388528,9.79886913 124.873445,9.23249363 125.582848,8.84066303 C126.319865,8.4335508 127.628928,8.75040589 127.781759,9.7611426 C127.821514,10.0235569 127.890788,10.2845385 127.891026,10.554116 C127.892454,12.9509446 127.892454,15.3477731 127.89293,17.7446016 L127.89293,18.3618362 L131.580634,18.3618362 L131.580634,17.6581648 C131.580872,15.9005384 131.595869,14.1426731 131.572778,12.3852854 C131.56516,11.8091201 131.680379,11.2642344 131.869394,10.7405997 C132.230761,9.73917525 132.882316,9.00494058 133.944992,8.70814263 C134.673439,8.5047059 135.433548,8.86167528 135.639703,9.55293036 C135.747066,9.91300382 135.803723,10.301014 135.806817,10.6770854 C135.822529,12.685665 135.837526,14.6949608 135.804437,16.7030628 C135.788011,17.6923097 136.454802,18.4573464 137.525809,18.4000403 C138.138562,18.3675669 138.754409,18.3928771 139.368828,18.391922 L139.368828,8.79935487 C139.324074,8.70909773 139.253372,8.62289977 139.237898,8.52786712 L139.237898,8.52786712 Z M115.510044,6.07683657 C114.478791,5.53863659 113.370171,5.29007129 112.379626,5.36456925 C111.638324,5.38032843 111.084371,5.38367129 110.521848,5.49446312 C109.19636,5.7559223 108.06203,6.37745493 107.169087,7.34951001 C106.347322,8.24396305 105.795274,9.30603649 105.594832,10.5591303 C105.420338,11.6505732 105.384391,12.7370017 105.660535,13.7780629 C106.23996,15.9633363 107.629722,17.472875 109.767453,18.2510444 C110.317121,18.4508995 110.884881,18.5774505 111.477399,18.537575 C112.233936,18.8993199 112.980476,18.4286934 113.73368,18.5105934 C114.69923,18.2178546 115.607646,17.837724 116.445837,17.2364873 C117.488516,16.4884036 118.144832,15.4678771 118.55381,14.3270078 C119.022301,13.0209058 119.054677,11.6202487 118.728542,10.2608997 C118.28219,8.39964468 117.219276,6.96914063 115.510044,6.07683657 L115.510044,6.07683657 Z M114.502597,14.2861772 C114.001968,14.9499731 113.345651,15.3363118 112.516031,15.3690241 C112.072297,15.3864547 111.628087,15.4182118 111.183163,15.251069 C110.33188,14.9306323 109.784593,14.3566159 109.436795,13.5180364 C109.129228,12.7766384 109.090187,12.0068262 109.195169,11.2587426 C109.437033,9.53024669 110.886071,8.29243447 112.661721,8.54458141 C113.158779,8.61525896 113.634174,8.83564875 114.031487,9.2036018 C114.556635,9.6899875 114.986086,10.2172038 115.091782,10.9504834 C115.139869,11.2826201 115.181529,11.6157119 115.226045,11.9480874 C115.237233,12.8124548 115.025365,13.5932507 114.502597,14.2861772 L114.502597,14.2861772 Z M101.764295,15.0545567 C100.911345,15.4172567 100.039113,15.6923261 99.1078438,15.3697404 C98.3465452,15.1058935 97.5966732,14.8515976 97.1224684,14.0903813 C96.5328072,13.1438752 96.3133208,12.173014 96.5982722,11.0825262 C96.8215674,10.2284263 97.1981698,9.4784324 97.9735136,9.01664058 C98.8171791,8.51425692 99.7067892,8.27810794 100.693287,8.63937528 C100.951101,8.73369161 101.153685,8.83493242 101.24605,9.07633445 C101.399595,9.47819363 101.702401,9.74323444 102.006159,10.0190201 L104.53049,10.0190201 C104.53049,9.26998139 104.535489,8.58708345 104.525967,7.90466306 C104.524062,7.77596306 104.477165,7.64248755 104.428126,7.52047327 C104.062236,6.61026105 103.305461,6.12101004 102.451559,5.79723046 C101.054416,5.26738762 99.605854,5.2256019 98.1465793,5.5092672 C96.7665768,5.77788964 95.5801127,6.40777942 94.6119446,7.43881205 C93.5245112,8.59711202 92.9034267,9.94786504 92.9124728,11.5607936 C92.9141392,11.8802752 92.9279463,12.2007119 92.9096161,12.5192384 C92.8579583,13.4222874 93.1650487,14.2400935 93.4995154,15.0485874 C93.8085103,15.7961935 94.3655581,16.3577934 94.9235581,16.9246465 C95.5408336,17.551671 96.2928481,17.9349056 97.0881886,18.2548648 C97.9777986,18.6125505 98.9064496,18.6841832 99.858668,18.677975 C101.116072,18.6691403 102.301346,18.4098301 103.395683,17.7949832 C104.078424,17.4110322 104.741644,16.9852955 105.21942,16.3592261 C105.036356,15.7799567 104.221495,14.3824037 103.681349,13.7181302 C103.113112,14.2649262 102.493456,14.7443874 101.764295,15.0545567 L101.764295,15.0545567 Z M90.2505462,14.1761017 C89.6504106,14.1312119 88.998141,14.3766731 88.5760702,14.8852649 C88.2168458,15.3184037 87.9897417,15.8367853 87.9964072,16.4279934 C88.0092622,17.5855771 88.9902852,18.5325607 90.1822246,18.5325607 C91.4215368,18.532322 92.3547109,17.6130363 92.3749455,16.4110404 C92.3980368,15.0373649 91.3463116,14.2580017 90.2505462,14.1761017 L90.2505462,14.1761017 Z" id="Fill-25" fill="#00A0F9"></path>
                </g>
            </g>
        </g>
    </g>
</svg>