<?xml version="1.0" encoding="UTF-8"?>
<svg width="104px" height="32px" viewBox="0 0 104 32" version="1.1" xmlns="http://www.w3.org/2000/svg" xmlns:xlink="http://www.w3.org/1999/xlink">
    <!-- Generator: Sketch 61 (89581) - https://sketch.com/ -->
    <title>logo_airbnb</title>
    <desc>Created with Sketch.</desc>
    <g id="✅-Home" stroke="none" stroke-width="1" fill="none" fill-rule="evenodd">
        <g id="Home-Page" transform="translate(-320.000000, -694.000000)" fill="#FF5A5F">
            <g id="Logos" transform="translate(320.000000, 693.000000)">
                <path d="M54.8116507,9.03999767 C54.8116507,10.1929539 53.8696217,11.1222022 52.6997509,11.1222022 C51.5303518,11.1222022 50.5878511,10.1929539 50.5878511,9.03999767 C50.5878511,7.88657636 51.497803,6.95779315 52.6997509,6.95779315 C53.9021705,6.98988431 54.8116507,7.91866752 54.8116507,9.03999767 L54.8116507,9.03999767 Z M46.1046043,13.2360328 L46.1046043,13.7485611 C46.1046043,13.7485611 45.0974777,12.4672403 42.953029,12.4672403 C39.4118113,12.4672403 36.6503502,15.1256904 36.6503502,18.8096622 C36.6503502,22.4610778 39.3792625,25.1520842 42.953029,25.1520842 C45.1300265,25.1520842 46.1046043,23.8386722 46.1046043,23.8386722 L46.1046043,24.3832917 C46.1046043,24.6395558 46.2994255,24.8316377 46.5593444,24.8316377 L49.191082,24.8316377 L49.191082,12.7872217 L46.5593444,12.7872217 C46.2994255,12.7872217 46.1046043,13.0118598 46.1046043,13.2360328 L46.1046043,13.2360328 Z M46.1046043,20.9560491 C45.6173154,21.6606593 44.6427376,22.268996 43.4728668,22.268996 C41.3939875,22.268996 39.8019255,20.9876751 39.8019255,18.8096622 C39.8019255,16.6316493 41.3939875,15.3503285 43.4728668,15.3503285 C44.6101887,15.3503285 45.6498642,15.9907564 46.1046043,16.6637405 L46.1046043,20.9560491 L46.1046043,20.9560491 Z M51.1402376,12.7872217 L54.2592641,12.7872217 L54.2592641,24.8316377 L51.1402376,24.8316377 L51.1402376,12.7872217 Z M97.72987,12.4672403 C95.5854213,12.4672403 94.5782947,13.7485611 94.5782947,13.7485611 L94.5782947,6.98988431 L91.4592682,6.98988431 L91.4592682,24.8316377 L94.0910058,24.8316377 C94.3509246,24.8316377 94.5457459,24.6074647 94.5457459,24.3832917 L94.5457459,23.8386722 C94.5457459,23.8386722 95.5528725,25.1520842 97.6973211,25.1520842 C101.238539,25.1520842 104,22.4610778 104,18.8096622 C104,15.1577815 101.238539,12.4672403 97.72987,12.4672403 L97.72987,12.4672403 Z M97.2100322,22.2369048 C96.0076126,22.2369048 95.0655836,21.6285681 94.5782947,20.9239579 L94.5782947,16.6316493 C95.0655836,15.9907564 96.1052591,15.3182373 97.2100322,15.3182373 C99.2889115,15.3182373 100.880974,16.5995582 100.880974,18.7775711 C100.880974,20.9560491 99.2889115,22.2369048 97.2100322,22.2369048 L97.2100322,22.2369048 Z M89.8346573,17.6883321 L89.8346573,24.8637289 L86.7156309,24.8637289 L86.7156309,18.0408697 C86.7156309,16.0549387 86.0660695,15.254055 84.3117351,15.254055 C83.3692343,15.254055 82.3951282,15.7344922 81.777644,16.4391024 L81.777644,24.8316377 L78.6586175,24.8316377 L78.6586175,12.7872217 L81.127611,12.7872217 C81.3875298,12.7872217 81.5828228,13.0118598 81.5828228,13.2360328 L81.5828228,13.7485611 C82.492303,12.8193128 83.6942509,12.4672403 84.8966705,12.4672403 C86.2608908,12.4672403 87.3982127,12.851404 88.3076929,13.6206616 C89.4124661,14.5173536 89.8346573,15.6703099 89.8346573,17.6883321 L89.8346573,17.6883321 Z M71.0884214,12.4672403 C68.9444445,12.4672403 67.9373179,13.7485611 67.9373179,13.7485611 L67.9373179,6.98988431 L64.8182914,6.98988431 L64.8182914,24.8316377 L67.4500289,24.8316377 C67.7099478,24.8316377 67.904769,24.6074647 67.904769,24.3832917 L67.904769,23.8386722 C67.904769,23.8386722 68.9118957,25.1520842 71.0558726,25.1520842 C74.5975621,25.1520842 77.3590232,22.4610778 77.3590232,18.8096622 C77.391572,15.1577815 74.6301109,12.4672403 71.0884214,12.4672403 L71.0884214,12.4672403 Z M70.5690554,22.2369048 C69.3666358,22.2369048 68.4246068,21.6285681 67.9373179,20.9239579 L67.9373179,16.6316493 C68.4246068,15.9907564 69.4642823,15.3182373 70.5690554,15.3182373 C72.6479347,15.3182373 74.2399967,16.5995582 74.2399967,18.7775711 C74.2399967,20.9560491 72.6479347,22.2369048 70.5690554,22.2369048 L70.5690554,22.2369048 Z M62.1219279,12.4672403 C63.0639569,12.4672403 63.5512459,12.627231 63.5512459,12.627231 L63.5512459,15.478228 C63.5512459,15.478228 60.9520571,14.613162 59.3274463,16.4391024 L59.3274463,24.8637289 L56.2088915,24.8637289 L56.2088915,12.7872217 L58.8401573,12.7872217 C59.1000762,12.7872217 59.2948974,13.0118598 59.2948974,13.2360328 L59.2948974,13.7485611 C59.8798328,13.0760421 61.1468784,12.4672403 62.1219279,12.4672403 L62.1219279,12.4672403 Z M29.7301871,23.7423987 C29.5679147,23.358235 29.4051706,22.941515 29.2428982,22.5894425 C28.9829793,22.0127318 28.7230604,21.4681123 28.4956904,20.9560491 L28.4631416,20.9239579 C26.2215182,16.119121 23.8171507,11.2501017 21.2830596,6.44526481 L21.1854131,6.25318295 C20.9254943,5.77228068 20.6655754,5.25975234 20.4056565,4.747224 C20.0811117,4.17097843 19.7560952,3.56217662 19.2362575,2.98546596 C18.196582,1.7046102 16.7021664,1 15.1101043,1 C13.4854934,1 12.0236267,1.7046102 10.9514024,2.92174874 C10.4641135,3.49845939 10.1065481,4.10679612 9.78200331,4.68350677 C9.52208443,5.19603511 9.26216556,5.70856346 9.00224669,6.18900064 L8.90460022,6.3810825 C6.40305797,11.1863845 3.96661337,16.0549387 1.72451827,20.8593105 L1.69196945,20.9239579 C1.4645994,21.4360212 1.20468052,21.9806407 0.944761653,22.5573513 C0.782489253,22.909889 0.619745132,23.2940527 0.457472733,23.7103075 C0.0352814612,24.89582 -0.094913836,26.0171502 0.0678302855,27.1701064 C0.424923908,29.5722923 2.04953479,31.5903145 4.29115817,32.4874717 C5.13601243,32.8395442 6.0129438,33 6.92289571,33 C7.18281459,33 7.50783111,32.9679088 7.76774998,32.9358177 C8.83997429,32.8079181 9.94427571,32.4553805 11.0165,31.8465787 C12.3486432,31.1098773 13.6156887,30.0527295 15.0450067,28.5151445 C16.4743246,30.0527295 17.7743907,31.1098773 19.0735133,31.8465787 C20.1457376,32.4553805 21.2505108,32.8079181 22.3227351,32.9358177 C22.582654,32.9679088 22.9071988,33 23.1671176,33 C24.0770696,33 24.9865497,32.8395442 25.7988552,32.4874717 C28.0730274,31.5903145 29.6650894,29.5406662 30.0226548,27.1701064 C30.2825737,26.0487762 30.1523784,24.9279112 29.7301871,23.7423987 L29.7301871,23.7423987 Z M15.0775555,25.4083484 C13.323221,23.2298704 12.1858991,21.179757 11.7962566,19.4500901 C11.6339842,18.7138538 11.6014354,18.0729609 11.6986102,17.4962502 C11.7637078,16.9837219 11.958529,16.5353759 12.2184479,16.150747 C12.8359321,15.2861462 13.8756076,14.7415267 15.0775555,14.7415267 C16.2799751,14.7415267 17.3517277,15.254055 17.9366631,16.150747 C18.196582,16.5353759 18.3914032,16.9837219 18.4565008,17.4962502 C18.5536756,18.0729609 18.5215985,18.7454799 18.3588544,19.4500901 C17.9692119,21.1481309 16.83189,23.1977792 15.0775555,25.4083484 L15.0775555,25.4083484 Z M28.0409503,26.9138422 C27.8131085,28.5793268 26.6762583,30.0206383 25.0841962,30.6615313 C24.3044396,30.9819778 23.4595853,31.0777862 22.6152028,30.9819778 C21.8028974,30.8857043 20.9905919,30.6294401 20.1457376,30.149003 C18.9763386,29.50811 17.8064678,28.5151445 16.4422475,27.0422068 C18.5862244,24.447474 19.8858188,22.0769141 20.3735794,19.9626185 C20.6009495,18.9696529 20.6334983,18.0729609 20.5358518,17.239986 C20.4056565,16.4391024 20.1131888,15.702401 19.6584487,15.0619731 C18.6513221,13.6206616 16.9620853,12.7872217 15.0775555,12.7872217 C13.1934975,12.7872217 11.5037889,13.6522877 10.4966623,15.0619731 C10.0419222,15.702401 9.74945448,16.4391024 9.61973091,17.239986 C9.48953561,18.0729609 9.52208443,19.0017441 9.78200331,19.9626185 C10.2692922,22.0769141 11.6014354,24.4791001 13.7128635,27.0738329 C12.381192,28.5472356 11.1787724,29.5406662 10.0093734,30.1810941 C9.16451909,30.6615313 8.35221365,30.9177955 7.54037993,31.0136039 C6.66297684,31.1098773 5.81812258,30.9819778 5.07091478,30.6936225 C3.47885273,30.0527295 2.34200249,28.6114179 2.11463244,26.9454683 C2.01698597,26.1450497 2.08208361,25.344166 2.40662841,24.447474 C2.50427489,24.1270275 2.66654729,23.806581 2.82929141,23.4224173 C3.05666145,22.909889 3.31658033,22.3652695 3.5764992,21.82065 L3.60904802,21.7564676 C5.8506714,16.9837219 8.2550389,12.1147026 10.7565811,7.37404802 L10.8542276,7.18196616 C11.1141465,6.70152898 11.3740654,6.18900064 11.6339842,5.70856346 C11.8939031,5.19603511 12.1858991,4.71559793 12.5434644,4.29887797 C13.2255746,3.53008546 14.1355265,3.11383059 15.1426531,3.11383059 C16.1497798,3.11383059 17.05926,3.53008546 17.7418419,4.29887797 C18.0989355,4.71559793 18.3914032,5.19603511 18.6513221,5.70856346 C18.9112409,6.18900064 19.1711598,6.70152898 19.4310787,7.18196616 L19.5287252,7.37404802 C21.9977186,12.1467938 24.4020861,17.015813 26.6437095,21.7885588 L26.6437095,21.82065 C26.9036283,22.3331783 27.1309984,22.909889 27.3909172,23.4224173 C27.5531896,23.806581 27.7159338,24.1270275 27.8131085,24.447474 C28.0730274,25.2799837 28.1706739,26.0808674 28.0409503,26.9138422 L28.0409503,26.9138422 Z" id="logo_airbnb"></path>
            </g>
        </g>
    </g>
</svg>